<svg version="1.1" viewBox="0.0 0.0 600.0 371.0" fill="none" stroke="none" stroke-linecap="square" stroke-miterlimit="10" width="600" height="371" xmlns:xlink="http://www.w3.org/1999/xlink" xmlns="http://www.w3.org/2000/svg"><path fill="#ffffff" d="M0 0L600.0 0L600.0 371.0L0 371.0L0 0Z" fill-rule="nonzero"/><path stroke="#e6e6e6" stroke-width="1.0" stroke-linecap="butt" d="M100.5 269.5L581.5 269.5" fill-rule="nonzero"/><path stroke="#e6e6e6" stroke-width="1.0" stroke-linecap="butt" d="M100.5 253.5L581.5 253.5" fill-rule="nonzero"/><path stroke="#e6e6e6" stroke-width="1.0" stroke-linecap="butt" d="M100.5 220.5L581.5 220.5" fill-rule="nonzero"/><path stroke="#e6e6e6" stroke-width="1.0" stroke-linecap="butt" d="M100.5 203.5L581.5 203.5" fill-rule="nonzero"/><path stroke="#e6e6e6" stroke-width="1.0" stroke-linecap="butt" d="M100.5 170.5L581.5 170.5" fill-rule="nonzero"/><path stroke="#e6e6e6" stroke-width="1.0" stroke-linecap="butt" d="M100.5 154.5L581.5 154.5" fill-rule="nonzero"/><path stroke="#e6e6e6" stroke-width="1.0" stroke-linecap="butt" d="M100.5 121.5L581.5 121.5" fill-rule="nonzero"/><path stroke="#e6e6e6" stroke-width="1.0" stroke-linecap="butt" d="M100.5 104.5L581.5 104.5" fill-rule="nonzero"/><path stroke="#000000" stroke-width="1.0" stroke-linecap="butt" d="M86.5 300.5L86.5 88.5" fill-rule="nonzero"/><clipPath id="id_0"><path d="M86.55 88.28333L581.45 88.28333L581.45 300.45L86.55 300.45L86.55 88.28333Z" clip-rule="nonzero"/></clipPath><path fill="#2b569f" clip-path="url(#id_0)" d="M167.0 117.0L167.0 286.0L158.0 295.0L158.0 126.0Z" fill-rule="nonzero"/><path fill="#689df6" clip-path="url(#id_0)" d="M158.0 126.0L123.0 126.0L132.0 117.0L167.0 117.0Z" fill-rule="nonzero"/><path stroke="#000000" stroke-width="2.0" stroke-linecap="butt" stroke-opacity="0.0" clip-path="url(#id_0)" d="M158.0 295.0L123.0 295.0L123.0 126.0L158.0 126.0Z" fill-rule="nonzero"/><path fill="#4285f4" clip-path="url(#id_0)" d="M158.0 295.0L123.0 295.0L123.0 126.0L158.0 126.0Z" fill-rule="nonzero"/><path fill="#2b569f" clip-path="url(#id_0)" d="M281.0 124.0L281.0 286.0L272.0 295.0L272.0 133.0Z" fill-rule="nonzero"/><path fill="#689df6" clip-path="url(#id_0)" d="M272.0 133.0L237.0 133.0L246.0 124.0L281.0 124.0Z" fill-rule="nonzero"/><path stroke="#000000" stroke-width="2.0" stroke-linecap="butt" stroke-opacity="0.0" clip-path="url(#id_0)" d="M272.0 295.0L237.0 295.0L237.0 133.0L272.0 133.0Z" fill-rule="nonzero"/><path fill="#4285f4" clip-path="url(#id_0)" d="M272.0 295.0L237.0 295.0L237.0 133.0L272.0 133.0Z" fill-rule="nonzero"/><path fill="#2b569f" clip-path="url(#id_0)" d="M394.0 119.0L394.0 286.0L385.0 295.0L385.0 128.0Z" fill-rule="nonzero"/><path fill="#689df6" clip-path="url(#id_0)" d="M385.0 128.0L350.0 128.0L359.0 119.0L394.0 119.0Z" fill-rule="nonzero"/><path stroke="#000000" stroke-width="2.0" stroke-linecap="butt" stroke-opacity="0.0" clip-path="url(#id_0)" d="M385.0 295.0L350.0 295.0L350.0 128.0L385.0 128.0Z" fill-rule="nonzero"/><path fill="#4285f4" clip-path="url(#id_0)" d="M385.0 295.0L350.0 295.0L350.0 128.0L385.0 128.0Z" fill-rule="nonzero"/><path fill="#2b569f" clip-path="url(#id_0)" d="M508.0 122.0L508.0 286.0L499.0 295.0L499.0 131.0Z" fill-rule="nonzero"/><path fill="#689df6" clip-path="url(#id_0)" d="M499.0 131.0L464.0 131.0L473.0 122.0L508.0 122.0Z" fill-rule="nonzero"/><path stroke="#000000" stroke-width="2.0" stroke-linecap="butt" stroke-opacity="0.0" clip-path="url(#id_0)" d="M499.0 295.0L464.0 295.0L464.0 131.0L499.0 131.0Z" fill-rule="nonzero"/><path fill="#4285f4" clip-path="url(#id_0)" d="M499.0 295.0L464.0 295.0L464.0 131.0L499.0 131.0Z" fill-rule="nonzero"/><path fill="#982c22" clip-path="url(#id_0)" d="M204.0 136.0L204.0 286.0L195.0 295.0L195.0 145.0Z" fill-rule="nonzero"/><path fill="#ee695d" clip-path="url(#id_0)" d="M195.0 145.0L160.0 145.0L169.0 136.0L204.0 136.0Z" fill-rule="nonzero"/><path stroke="#000000" stroke-width="2.0" stroke-linecap="butt" stroke-opacity="0.0" clip-path="url(#id_0)" d="M195.0 295.0L160.0 295.0L160.0 145.0L195.0 145.0Z" fill-rule="nonzero"/><path fill="#ea4335" clip-path="url(#id_0)" d="M195.0 295.0L160.0 295.0L160.0 145.0L195.0 145.0Z" fill-rule="nonzero"/><path fill="#982c22" clip-path="url(#id_0)" d="M318.0 134.0L318.0 286.0L309.0 295.0L309.0 143.0Z" fill-rule="nonzero"/><path fill="#ee695d" clip-path="url(#id_0)" d="M309.0 143.0L274.0 143.0L283.0 134.0L318.0 134.0Z" fill-rule="nonzero"/><path stroke="#000000" stroke-width="2.0" stroke-linecap="butt" stroke-opacity="0.0" clip-path="url(#id_0)" d="M309.0 295.0L274.0 295.0L274.0 143.0L309.0 143.0Z" fill-rule="nonzero"/><path fill="#ea4335" clip-path="url(#id_0)" d="M309.0 295.0L274.0 295.0L274.0 143.0L309.0 143.0Z" fill-rule="nonzero"/><path fill="#982c22" clip-path="url(#id_0)" d="M431.0 133.0L431.0 286.0L422.0 295.0L422.0 142.0Z" fill-rule="nonzero"/><path fill="#ee695d" clip-path="url(#id_0)" d="M422.0 142.0L387.0 142.0L396.0 133.0L431.0 133.0Z" fill-rule="nonzero"/><path stroke="#000000" stroke-width="2.0" stroke-linecap="butt" stroke-opacity="0.0" clip-path="url(#id_0)" d="M422.0 295.0L387.0 295.0L387.0 142.0L422.0 142.0Z" fill-rule="nonzero"/><path fill="#ea4335" clip-path="url(#id_0)" d="M422.0 295.0L387.0 295.0L387.0 142.0L422.0 142.0Z" fill-rule="nonzero"/><path fill="#982c22" clip-path="url(#id_0)" d="M545.0 129.0L545.0 286.0L536.0 295.0L536.0 138.0Z" fill-rule="nonzero"/><path fill="#ee695d" clip-path="url(#id_0)" d="M536.0 138.0L501.0 138.0L510.0 129.0L545.0 129.0Z" fill-rule="nonzero"/><path stroke="#000000" stroke-width="2.0" stroke-linecap="butt" stroke-opacity="0.0" clip-path="url(#id_0)" d="M536.0 295.0L501.0 295.0L501.0 138.0L536.0 138.0Z" fill-rule="nonzero"/><path fill="#ea4335" clip-path="url(#id_0)" d="M536.0 295.0L501.0 295.0L501.0 138.0L536.0 138.0Z" fill-rule="nonzero"/><path stroke="#000000" stroke-width="1.0" stroke-linecap="butt" d="M83.5 269.5L89.5 269.5" fill-rule="nonzero"/><path stroke="#000000" stroke-width="1.0" stroke-linecap="butt" d="M83.5 253.5L89.5 253.5" fill-rule="nonzero"/><path stroke="#000000" stroke-width="1.0" stroke-linecap="butt" d="M83.5 220.5L89.5 220.5" fill-rule="nonzero"/><path stroke="#000000" stroke-width="1.0" stroke-linecap="butt" d="M83.5 203.5L89.5 203.5" fill-rule="nonzero"/><path stroke="#000000" stroke-width="1.0" stroke-linecap="butt" d="M83.5 170.5L89.5 170.5" fill-rule="nonzero"/><path stroke="#000000" stroke-width="1.0" stroke-linecap="butt" d="M83.5 154.5L89.5 154.5" fill-rule="nonzero"/><path stroke="#000000" stroke-width="1.0" stroke-linecap="butt" d="M83.5 121.5L89.5 121.5" fill-rule="nonzero"/><path stroke="#000000" stroke-width="1.0" stroke-linecap="butt" d="M83.5 104.5L89.5 104.5" fill-rule="nonzero"/><path fill="#000000" d="M318.39062 349.45L318.39062 340.85626L320.10938 340.85626L322.14062 346.9344Q322.42188 347.79376 322.54688 348.21564Q322.6875 347.7469 323.0 346.84064L325.0625 340.85626L326.59375 340.85626L326.59375 349.45L325.5 349.45L325.5 342.2625L323.0 349.45L321.96875 349.45L319.48438 342.1375L319.48438 349.45L318.39062 349.45ZM326.90625 346.34064Q326.90625 344.60626 327.85938 343.77814Q328.65625 343.09064 329.8125 343.09064Q331.09375 343.09064 331.90625 343.9344Q332.73438 344.7625 332.73438 346.2469Q332.73438 347.45 332.375 348.1375Q332.01562 348.825 331.3125 349.21564Q330.625 349.59064 329.8125 349.59064Q328.51562 349.59064 327.70312 348.7625Q326.90625 347.91876 326.90625 346.34064ZM327.98438 346.34064Q327.98438 347.52814 328.5 348.1219Q329.03125 348.71564 329.8125 348.71564Q330.60938 348.71564 331.125 348.1219Q331.64062 347.52814 331.64062 346.3094Q331.64062 345.15314 331.10938 344.5594Q330.59375 343.96564 329.8125 343.96564Q329.03125 343.96564 328.5 344.5594Q327.98438 345.1375 327.98438 346.34064ZM338.32812 349.45L338.32812 348.66876Q337.73438 349.59064 336.59375 349.59064Q335.84375 349.59064 335.21875 349.1844Q334.59375 348.7625 334.25 348.02814Q333.90625 347.29376 333.90625 346.34064Q333.90625 345.41876 334.21875 344.65314Q334.53125 343.8875 335.15625 343.4969Q335.78125 343.09064 336.54688 343.09064Q337.10938 343.09064 337.54688 343.325Q337.98438 343.5594 338.26562 343.9344L338.26562 340.85626L339.3125 340.85626L339.3125 349.45L338.32812 349.45ZM335.0 346.34064Q335.0 347.54376 335.5 348.1375Q336.0 348.71564 336.6875 348.71564Q337.375 348.71564 337.85938 348.15314Q338.34375 347.59064 338.34375 346.4344Q338.34375 345.15314 337.84375 344.5594Q337.35938 343.96564 336.64062 343.96564Q335.9375 343.96564 335.46875 344.54376Q335.0 345.10626 335.0 346.34064ZM345.54688 347.45L346.64062 347.575Q346.39062 348.52814 345.6875 349.0594Q344.98438 349.59064 343.90625 349.59064Q342.54688 349.59064 341.73438 348.7469Q340.9375 347.90314 340.9375 346.3875Q340.9375 344.825 341.75 343.96564Q342.5625 343.09064 343.84375 343.09064Q345.09375 343.09064 345.875 343.9344Q346.67188 344.77814 346.67188 346.325Q346.67188 346.41876 346.67188 346.60626L342.03125 346.60626Q342.09375 347.6375 342.60938 348.1844Q343.125 348.71564 343.90625 348.71564Q344.48438 348.71564 344.89062 348.41876Q345.3125 348.10626 345.54688 347.45ZM342.09375 345.7469L345.5625 345.7469Q345.5 344.95 345.17188 344.5594Q344.65625 343.95 343.85938 343.95Q343.125 343.95 342.625 344.4344Q342.14062 344.91876 342.09375 345.7469ZM348.26562 349.45L348.26562 340.85626L349.32812 340.85626L349.32812 349.45L348.26562 349.45Z" fill-rule="nonzero"/><path fill="#000000" d="M29.550013 224.8823L20.956263 221.58542L20.956263 220.36667L29.550013 216.85104L29.550013 218.1323L26.940638 219.14792L26.940638 222.72604L29.550013 223.67917L29.550013 224.8823ZM26.018763 222.39792L26.018763 219.49167L23.643763 220.3823Q22.565638 220.80417 21.862513 220.99167Q22.690638 221.16354 23.503138 221.46042L26.018763 222.39792ZM27.268763 213.0073L27.409388 211.97604Q28.471888 212.14792 29.081263 212.85104Q29.690638 213.55417 29.690638 214.5698Q29.690638 215.85104 28.862513 216.6323Q28.018763 217.39792 26.456263 217.39792Q25.456263 217.39792 24.706263 217.0698Q23.940638 216.72604 23.565638 216.05417Q23.190638 215.36667 23.190638 214.55417Q23.190638 213.55417 23.706263 212.91354Q24.206263 212.2573 25.159388 212.0698L25.315638 213.10104Q24.690638 213.24167 24.378138 213.61667Q24.050013 213.99167 24.050013 214.52292Q24.050013 215.3198 24.628138 215.8198Q25.190638 216.3198 26.425013 216.3198Q27.690638 216.3198 28.253138 215.83542Q28.815638 215.35104 28.815638 214.58542Q28.815638 213.96042 28.440638 213.55417Q28.065638 213.1323 27.268763 213.0073ZM27.268763 207.0073L27.409388 205.97604Q28.471888 206.14792 29.081263 206.85104Q29.690638 207.55417 29.690638 208.5698Q29.690638 209.85104 28.862513 210.6323Q28.018763 211.39792 26.456263 211.39792Q25.456263 211.39792 24.706263 211.0698Q23.940638 210.72604 23.565638 210.05417Q23.190638 209.36667 23.190638 208.55417Q23.190638 207.55417 23.706263 206.91354Q24.206263 206.2573 25.159388 206.0698L25.315638 207.10104Q24.690638 207.24167 24.378138 207.61667Q24.050013 207.99167 24.050013 208.52292Q24.050013 209.3198 24.628138 209.8198Q25.190638 210.3198 26.425013 210.3198Q27.690638 210.3198 28.253138 209.83542Q28.815638 209.35104 28.815638 208.58542Q28.815638 207.96042 28.440638 207.55417Q28.065638 207.1323 27.268763 207.0073ZM29.550013 200.99167L28.628138 200.99167Q29.690638 201.72604 29.690638 202.97604Q29.690638 203.52292 29.487513 204.0073Q29.268763 204.47604 28.956263 204.71042Q28.628138 204.9448 28.159388 205.03854Q27.862513 205.10104 27.175013 205.10104L23.331263 205.10104L23.331263 204.03854L26.784388 204.03854Q27.596888 204.03854 27.893763 203.97604Q28.300013 203.8823 28.550013 203.5698Q28.784388 203.24167 28.784388 202.7573Q28.784388 202.28854 28.550013 201.8823Q28.300013 201.46042 27.878138 201.28854Q27.456263 201.10104 26.659388 201.10104L23.331263 201.10104L23.331263 200.05417L29.550013 200.05417L29.550013 200.99167ZM29.550013 198.08542L23.331263 198.08542L23.331263 197.1323L24.268763 197.1323Q23.612513 196.77292 23.409388 196.47604Q23.190638 196.16354 23.190638 195.78854Q23.190638 195.2573 23.518763 194.71042L24.503138 195.0698Q24.268763 195.46042 24.268763 195.83542Q24.268763 196.1948 24.487513 196.47604Q24.690638 196.74167 25.065638 196.85104Q25.628138 197.03854 26.284388 197.03854L29.550013 197.03854L29.550013 198.08542ZM28.784388 190.0073Q29.284388 190.60104 29.487513 191.14792Q29.690638 191.67917 29.690638 192.30417Q29.690638 193.33542 29.190638 193.8823Q28.690638 194.42917 27.909388 194.42917Q27.456263 194.42917 27.081263 194.22604Q26.690638 194.02292 26.471888 193.67917Q26.237513 193.33542 26.128138 192.91354Q26.034388 192.61667 25.956263 191.97604Q25.815638 190.71042 25.596888 190.10104Q25.378138 190.10104 25.331263 190.10104Q24.675013 190.10104 24.409388 190.39792Q24.065638 190.80417 24.065638 191.60104Q24.065638 192.33542 24.331263 192.6948Q24.581263 193.05417 25.237513 193.22604L25.096888 194.2573Q24.440638 194.11667 24.034388 193.78854Q23.628138 193.46042 23.409388 192.85104Q23.190638 192.24167 23.190638 191.4448Q23.190638 190.64792 23.378138 190.14792Q23.565638 189.64792 23.846888 189.41354Q24.128138 189.17917 24.565638 189.08542Q24.831263 189.03854 25.534388 189.03854L26.940638 189.03854Q28.409388 189.03854 28.800013 188.97604Q29.190638 188.89792 29.550013 188.6948L29.550013 189.80417Q29.221888 189.96042 28.784388 190.0073ZM26.425013 190.10104Q26.659388 190.67917 26.831263 191.8198Q26.925013 192.47604 27.050013 192.74167Q27.159388 193.0073 27.378138 193.16354Q27.596888 193.30417 27.878138 193.30417Q28.300013 193.30417 28.581263 192.99167Q28.862513 192.66354 28.862513 192.05417Q28.862513 191.4448 28.596888 190.97604Q28.331263 190.49167 27.862513 190.27292Q27.503138 190.10104 26.815638 190.10104L26.425013 190.10104ZM27.268763 183.0073L27.409388 181.97604Q28.471888 182.14792 29.081263 182.85104Q29.690638 183.55417 29.690638 184.5698Q29.690638 185.85104 28.862513 186.6323Q28.018763 187.39792 26.456263 187.39792Q25.456263 187.39792 24.706263 187.0698Q23.940638 186.72604 23.565638 186.05417Q23.190638 185.36667 23.190638 184.55417Q23.190638 183.55417 23.706263 182.91354Q24.206263 182.2573 25.159388 182.0698L25.315638 183.10104Q24.690638 183.24167 24.378138 183.61667Q24.050013 183.99167 24.050013 184.52292Q24.050013 185.3198 24.628138 185.8198Q25.190638 186.3198 26.425013 186.3198Q27.690638 186.3198 28.253138 185.83542Q28.815638 185.35104 28.815638 184.58542Q28.815638 183.96042 28.440638 183.55417Q28.065638 183.1323 27.268763 183.0073ZM31.940638 181.11667L30.956263 181.24167Q31.050013 180.89792 31.050013 180.6323Q31.050013 180.28854 30.925013 180.08542Q30.815638 179.86667 30.612513 179.72604Q30.440638 179.6323 29.815638 179.39792Q29.737513 179.3823 29.565638 179.30417L23.331263 181.67917L23.331263 180.53854L26.925013 179.24167Q27.612513 178.99167 28.378138 178.78854Q27.643763 178.60104 26.956263 178.35104L23.331263 177.02292L23.331263 175.97604L29.659388 178.33542Q30.675013 178.72604 31.065638 178.92917Q31.596888 179.21042 31.831263 179.58542Q32.08126 179.9448 32.08126 180.4448Q32.08126 180.74167 31.940638 181.11667Z" fill-rule="nonzero"/><path fill="#000000" d="M51.05 286.21564Q51.05 284.6844 51.3625 283.7625Q51.675 282.825 52.284374 282.325Q52.909374 281.825 53.846874 281.825Q54.534374 281.825 55.05 282.10626Q55.58125 282.3875 55.925 282.91876Q56.26875 283.4344 56.45625 284.1844Q56.64375 284.9344 56.64375 286.21564Q56.64375 287.73126 56.33125 288.65314Q56.034374 289.575 55.409374 290.09064Q54.8 290.59064 53.846874 290.59064Q52.6125 290.59064 51.89375 289.7Q51.05 288.6375 51.05 286.21564ZM52.128124 286.21564Q52.128124 288.325 52.628124 289.02814Q53.128124 289.73126 53.846874 289.73126Q54.58125 289.73126 55.065624 289.02814Q55.565624 288.325 55.565624 286.21564Q55.565624 284.09064 55.065624 283.40314Q54.58125 282.7 53.83125 282.7Q53.1125 282.7 52.675 283.3094Q52.128124 284.09064 52.128124 286.21564ZM58.64375 290.45L58.64375 289.2469L59.846874 289.2469L59.846874 290.45L58.64375 290.45ZM61.05 286.21564Q61.05 284.6844 61.3625 283.7625Q61.675 282.825 62.284374 282.325Q62.909374 281.825 63.846874 281.825Q64.53438 281.825 65.05 282.10626Q65.58125 282.3875 65.925 282.91876Q66.26875 283.4344 66.45625 284.1844Q66.64375 284.9344 66.64375 286.21564Q66.64375 287.73126 66.33125 288.65314Q66.03438 289.575 65.40938 290.09064Q64.8 290.59064 63.846874 290.59064Q62.6125 290.59064 61.89375 289.7Q61.05 288.6375 61.05 286.21564ZM62.128124 286.21564Q62.128124 288.325 62.628124 289.02814Q63.128124 289.73126 63.846874 289.73126Q64.58125 289.73126 65.06563 289.02814Q65.56563 288.325 65.56563 286.21564Q65.56563 284.09064 65.06563 283.40314Q64.58125 282.7 63.83125 282.7Q63.1125 282.7 62.675 283.3094Q62.128124 284.09064 62.128124 286.21564ZM68.05 286.21564Q68.05 284.6844 68.3625 283.7625Q68.675 282.825 69.28438 282.325Q69.90938 281.825 70.84688 281.825Q71.53438 281.825 72.05 282.10626Q72.58125 282.3875 72.925 282.91876Q73.26875 283.4344 73.45625 284.1844Q73.64375 284.9344 73.64375 286.21564Q73.64375 287.73126 73.33125 288.65314Q73.03438 289.575 72.40938 290.09064Q71.8 290.59064 70.84688 290.59064Q69.6125 290.59064 68.89375 289.7Q68.05 288.6375 68.05 286.21564ZM69.12813 286.21564Q69.12813 288.325 69.62813 289.02814Q70.12813 289.73126 70.84688 289.73126Q71.58125 289.73126 72.06563 289.02814Q72.56563 288.325 72.56563 286.21564Q72.56563 284.09064 72.06563 283.40314Q71.58125 282.7 70.83125 282.7Q70.1125 282.7 69.675 283.3094Q69.12813 284.09064 69.12813 286.21564Z" fill-rule="nonzero"/><path fill="#000000" d="M51.05 236.67397Q51.05 235.14272 51.3625 234.22084Q51.675 233.28334 52.284374 232.78334Q52.909374 232.28334 53.846874 232.28334Q54.534374 232.28334 55.05 232.56459Q55.58125 232.84584 55.925 233.37709Q56.26875 233.89272 56.45625 234.64272Q56.64375 235.39272 56.64375 236.67397Q56.64375 238.18959 56.33125 239.11147Q56.034374 240.03334 55.409374 240.54897Q54.8 241.04897 53.846874 241.04897Q52.6125 241.04897 51.89375 240.15834Q51.05 239.09584 51.05 236.67397ZM52.128124 236.67397Q52.128124 238.78334 52.628124 239.48647Q53.128124 240.18959 53.846874 240.18959Q54.58125 240.18959 55.065624 239.48647Q55.565624 238.78334 55.565624 236.67397Q55.565624 234.54897 55.065624 233.86147Q54.58125 233.15834 53.83125 233.15834Q53.1125 233.15834 52.675 233.76772Q52.128124 234.54897 52.128124 236.67397ZM58.64375 240.90834L58.64375 239.70522L59.846874 239.70522L59.846874 240.90834L58.64375 240.90834ZM66.59688 239.89272L66.59688 240.90834L60.909374 240.90834Q60.909374 240.53334 61.034374 240.17397Q61.253124 239.59584 61.721874 239.03334Q62.20625 238.47084 63.1125 237.73647Q64.51875 236.58022 65.00313 235.90834Q65.50313 235.23647 65.50313 234.64272Q65.50313 234.01772 65.05 233.59584Q64.59688 233.15834 63.878124 233.15834Q63.1125 233.15834 62.659374 233.61147Q62.20625 234.06459 62.190624 234.87709L61.1125 234.76772Q61.221874 233.54897 61.940624 232.92397Q62.675 232.28334 63.909374 232.28334Q65.14375 232.28334 65.8625 232.97084Q66.58125 233.65834 66.58125 234.67397Q66.58125 235.18959 66.3625 235.68959Q66.15938 236.17397 65.65938 236.73647Q65.175 237.28334 64.05 238.23647Q63.096874 239.03334 62.815624 239.33022Q62.55 239.61147 62.378124 239.89272L66.59688 239.89272ZM68.05 238.65834L69.15938 238.56459Q69.28438 239.37709 69.72188 239.78334Q70.175 240.18959 70.81563 240.18959Q71.56563 240.18959 72.09688 239.61147Q72.62813 239.03334 72.62813 238.09584Q72.62813 237.18959 72.1125 236.67397Q71.6125 236.14272 70.78438 236.14272Q70.28438 236.14272 69.8625 236.37709Q69.45625 236.61147 69.22188 236.97084L68.2375 236.84584L69.06563 232.43959L73.34688 232.43959L73.34688 233.43959L69.90938 233.43959L69.45625 235.75209Q70.22188 235.20522 71.06563 235.20522Q72.19063 235.20522 72.95625 235.98647Q73.7375 236.76772 73.7375 238.00209Q73.7375 239.15834 73.06563 240.01772Q72.2375 241.04897 70.81563 241.04897Q69.64375 241.04897 68.89375 240.39272Q68.15938 239.73647 68.05 238.65834Z" fill-rule="nonzero"/><path fill="#000000" d="M51.05 187.1323Q51.05 185.60104 51.3625 184.67917Q51.675 183.74167 52.284374 183.24167Q52.909374 182.74167 53.846874 182.74167Q54.534374 182.74167 55.05 183.02292Q55.58125 183.30417 55.925 183.83542Q56.26875 184.35104 56.45625 185.10104Q56.64375 185.85104 56.64375 187.1323Q56.64375 188.64792 56.33125 189.5698Q56.034374 190.49167 55.409374 191.0073Q54.8 191.5073 53.846874 191.5073Q52.6125 191.5073 51.89375 190.61667Q51.05 189.55417 51.05 187.1323ZM52.128124 187.1323Q52.128124 189.24167 52.628124 189.9448Q53.128124 190.64792 53.846874 190.64792Q54.58125 190.64792 55.065624 189.9448Q55.565624 189.24167 55.565624 187.1323Q55.565624 185.0073 55.065624 184.3198Q54.58125 183.61667 53.83125 183.61667Q53.1125 183.61667 52.675 184.22604Q52.128124 185.0073 52.128124 187.1323ZM58.64375 191.36667L58.64375 190.16354L59.846874 190.16354L59.846874 191.36667L58.64375 191.36667ZM61.05 189.11667L62.159374 189.02292Q62.284374 189.83542 62.721874 190.24167Q63.175 190.64792 63.815624 190.64792Q64.56563 190.64792 65.09688 190.0698Q65.62813 189.49167 65.62813 188.55417Q65.62813 187.64792 65.1125 187.1323Q64.6125 186.60104 63.784374 186.60104Q63.284374 186.60104 62.8625 186.83542Q62.45625 187.0698 62.221874 187.42917L61.2375 187.30417L62.065624 182.89792L66.34688 182.89792L66.34688 183.89792L62.909374 183.89792L62.45625 186.21042Q63.221874 185.66354 64.06563 185.66354Q65.19063 185.66354 65.95625 186.4448Q66.7375 187.22604 66.7375 188.46042Q66.7375 189.61667 66.06563 190.47604Q65.2375 191.5073 63.815624 191.5073Q62.64375 191.5073 61.89375 190.85104Q61.159374 190.1948 61.05 189.11667ZM68.05 187.1323Q68.05 185.60104 68.3625 184.67917Q68.675 183.74167 69.28438 183.24167Q69.90938 182.74167 70.84688 182.74167Q71.53438 182.74167 72.05 183.02292Q72.58125 183.30417 72.925 183.83542Q73.26875 184.35104 73.45625 185.10104Q73.64375 185.85104 73.64375 187.1323Q73.64375 188.64792 73.33125 189.5698Q73.03438 190.49167 72.40938 191.0073Q71.8 191.5073 70.84688 191.5073Q69.6125 191.5073 68.89375 190.61667Q68.05 189.55417 68.05 187.1323ZM69.12813 187.1323Q69.12813 189.24167 69.62813 189.9448Q70.12813 190.64792 70.84688 190.64792Q71.58125 190.64792 72.06563 189.9448Q72.56563 189.24167 72.56563 187.1323Q72.56563 185.0073 72.06563 184.3198Q71.58125 183.61667 70.83125 183.61667Q70.1125 183.61667 69.675 184.22604Q69.12813 185.0073 69.12813 187.1323Z" fill-rule="nonzero"/><path fill="#000000" d="M51.05 137.59062Q51.05 136.05937 51.3625 135.1375Q51.675 134.2 52.284374 133.7Q52.909374 133.2 53.846874 133.2Q54.534374 133.2 55.05 133.48125Q55.58125 133.7625 55.925 134.29375Q56.26875 134.80937 56.45625 135.55937Q56.64375 136.30937 56.64375 137.59062Q56.64375 139.10625 56.33125 140.02812Q56.034374 140.95 55.409374 141.46562Q54.8 141.96562 53.846874 141.96562Q52.6125 141.96562 51.89375 141.075Q51.05 140.0125 51.05 137.59062ZM52.128124 137.59062Q52.128124 139.7 52.628124 140.40312Q53.128124 141.10625 53.846874 141.10625Q54.58125 141.10625 55.065624 140.40312Q55.565624 139.7 55.565624 137.59062Q55.565624 135.46562 55.065624 134.77812Q54.58125 134.075 53.83125 134.075Q53.1125 134.075 52.675 134.68437Q52.128124 135.46562 52.128124 137.59062ZM58.64375 141.825L58.64375 140.62187L59.846874 140.62187L59.846874 141.825L58.64375 141.825ZM61.1125 134.35625L61.1125 133.34062L66.675 133.34062L66.675 134.16875Q65.8625 135.04375 65.05 136.49687Q64.25313 137.93437 63.815624 139.46562Q63.4875 140.54375 63.409374 141.825L62.315624 141.825Q62.33125 140.80937 62.70625 139.37187Q63.096874 137.93437 63.8 136.60625Q64.51875 135.27812 65.33125 134.35625L61.1125 134.35625ZM68.05 139.575L69.15938 139.48125Q69.28438 140.29375 69.72188 140.7Q70.175 141.10625 70.81563 141.10625Q71.56563 141.10625 72.09688 140.52812Q72.62813 139.95 72.62813 139.0125Q72.62813 138.10625 72.1125 137.59062Q71.6125 137.05937 70.78438 137.05937Q70.28438 137.05937 69.8625 137.29375Q69.45625 137.52812 69.22188 137.8875L68.2375 137.7625L69.06563 133.35625L73.34688 133.35625L73.34688 134.35625L69.90938 134.35625L69.45625 136.66875Q70.22188 136.12187 71.06563 136.12187Q72.19063 136.12187 72.95625 136.90312Q73.7375 137.68437 73.7375 138.91875Q73.7375 140.075 73.06563 140.93437Q72.2375 141.96562 70.81563 141.96562Q69.64375 141.96562 68.89375 141.30937Q68.15938 140.65312 68.05 139.575Z" fill-rule="nonzero"/><path fill="#000000" d="M55.01875 92.28333L53.971874 92.28333L53.971874 85.56458Q53.58125 85.92396 52.95625 86.29896Q52.346874 86.65833 51.8625 86.83021L51.8625 85.81458Q52.7375 85.39271 53.39375 84.81458Q54.065624 84.22083 54.346874 83.65833L55.01875 83.65833L55.01875 92.28333ZM58.64375 92.28333L58.64375 91.08021L59.846874 91.08021L59.846874 92.28333L58.64375 92.28333ZM61.05 88.04896Q61.05 86.51771 61.3625 85.59583Q61.675 84.65833 62.284374 84.15833Q62.909374 83.65833 63.846874 83.65833Q64.53438 83.65833 65.05 83.93958Q65.58125 84.22083 65.925 84.75208Q66.26875 85.26771 66.45625 86.01771Q66.64375 86.76771 66.64375 88.04896Q66.64375 89.56458 66.33125 90.48646Q66.03438 91.40833 65.40938 91.92396Q64.8 92.42396 63.846874 92.42396Q62.6125 92.42396 61.89375 91.53333Q61.05 90.47083 61.05 88.04896ZM62.128124 88.04896Q62.128124 90.15833 62.628124 90.86146Q63.128124 91.56458 63.846874 91.56458Q64.58125 91.56458 65.06563 90.86146Q65.56563 90.15833 65.56563 88.04896Q65.56563 85.92396 65.06563 85.23646Q64.58125 84.53333 63.83125 84.53333Q63.1125 84.53333 62.675 85.14271Q62.128124 85.92396 62.128124 88.04896ZM68.05 88.04896Q68.05 86.51771 68.3625 85.59583Q68.675 84.65833 69.28438 84.15833Q69.90938 83.65833 70.84688 83.65833Q71.53438 83.65833 72.05 83.93958Q72.58125 84.22083 72.925 84.75208Q73.26875 85.26771 73.45625 86.01771Q73.64375 86.76771 73.64375 88.04896Q73.64375 89.56458 73.33125 90.48646Q73.03438 91.40833 72.40938 91.92396Q71.8 92.42396 70.84688 92.42396Q69.6125 92.42396 68.89375 91.53333Q68.05 90.47083 68.05 88.04896ZM69.12813 88.04896Q69.12813 90.15833 69.62813 90.86146Q70.12813 91.56458 70.84688 91.56458Q71.58125 91.56458 72.06563 90.86146Q72.56563 90.15833 72.56563 88.04896Q72.56563 85.92396 72.06563 85.23646Q71.58125 84.53333 70.83125 84.53333Q70.1125 84.53333 69.675 85.14271Q69.12813 85.92396 69.12813 88.04896Z" fill-rule="nonzero"/><path fill="#000000" d="M140.71983 317.45L137.39171 308.85626L138.62608 308.85626L140.86046 315.10626Q141.12608 315.85626 141.31358 316.5125Q141.51671 315.8094 141.78233 315.10626L144.09483 308.85626L145.25108 308.85626L141.89171 317.45L140.71983 317.45ZM149.29796 314.075L149.29796 313.075L152.92296 313.0594L152.92296 316.2469Q152.09483 316.91876 151.20421 317.2625Q150.31358 317.59064 149.37608 317.59064Q148.11046 317.59064 147.06358 317.0594Q146.03233 316.5125 145.50108 315.4969Q144.98546 314.46564 144.98546 313.2Q144.98546 311.9344 145.50108 310.85626Q146.03233 309.7625 147.01671 309.2469Q148.00108 308.71564 149.28233 308.71564Q150.21983 308.71564 150.96983 309.0125Q151.71983 309.3094 152.14171 309.85626Q152.57921 310.3875 152.79796 311.2625L151.78233 311.54376Q151.57921 310.8875 151.28233 310.5125Q151.00108 310.1375 150.46983 309.91876Q149.93858 309.6844 149.29796 309.6844Q148.51671 309.6844 147.93858 309.91876Q147.37608 310.15314 147.01671 310.54376Q146.67296 310.9344 146.48546 311.40314Q146.15733 312.2 146.15733 313.1219Q146.15733 314.27814 146.54796 315.0594Q146.95421 315.825 147.70421 316.2Q148.45421 316.575 149.31358 316.575Q150.04796 316.575 150.75108 316.29376Q151.45421 315.9969 151.81358 315.6844L151.81358 314.075L149.29796 314.075ZM158.29796 314.075L158.29796 313.075L161.92296 313.0594L161.92296 316.2469Q161.09483 316.91876 160.20421 317.2625Q159.31358 317.59064 158.37608 317.59064Q157.11046 317.59064 156.06358 317.0594Q155.03233 316.5125 154.50108 315.4969Q153.98546 314.46564 153.98546 313.2Q153.98546 311.9344 154.50108 310.85626Q155.03233 309.7625 156.01671 309.2469Q157.00108 308.71564 158.28233 308.71564Q159.21983 308.71564 159.96983 309.0125Q160.71983 309.3094 161.14171 309.85626Q161.57921 310.3875 161.79796 311.2625L160.78233 311.54376Q160.57921 310.8875 160.28233 310.5125Q160.00108 310.1375 159.46983 309.91876Q158.93858 309.6844 158.29796 309.6844Q157.51671 309.6844 156.93858 309.91876Q156.37608 310.15314 156.01671 310.54376Q155.67296 310.9344 155.48546 311.40314Q155.15733 312.2 155.15733 313.1219Q155.15733 314.27814 155.54796 315.0594Q155.95421 315.825 156.70421 316.2Q157.45421 316.575 158.31358 316.575Q159.04796 316.575 159.75108 316.29376Q160.45421 315.9969 160.81358 315.6844L160.81358 314.075L158.29796 314.075ZM162.71983 314.8719L162.71983 313.8094L165.96983 313.8094L165.96983 314.8719L162.71983 314.8719ZM170.81358 317.45L169.76671 317.45L169.76671 310.73126Q169.37608 311.09064 168.75108 311.46564Q168.14171 311.825 167.65733 311.9969L167.65733 310.98126Q168.53233 310.5594 169.18858 309.98126Q169.86046 309.3875 170.14171 308.825L170.81358 308.825L170.81358 317.45ZM173.84483 315.1844L174.90733 315.04376Q175.07921 315.9344 175.51671 316.34064Q175.95421 316.73126 176.57921 316.73126Q177.32921 316.73126 177.84483 316.21564Q178.36046 315.7 178.36046 314.9344Q178.36046 314.21564 177.87608 313.7469Q177.40733 313.2625 176.67296 313.2625Q176.37608 313.2625 175.92296 313.3875L176.04796 312.45Q176.15733 312.46564 176.21983 312.46564Q176.89171 312.46564 177.42296 312.1219Q177.96983 311.7625 177.96983 311.02814Q177.96983 310.45 177.57921 310.075Q177.18858 309.6844 176.56358 309.6844Q175.95421 309.6844 175.53233 310.075Q175.12608 310.46564 175.01671 311.23126L173.95421 311.04376Q174.14171 309.9969 174.82921 309.41876Q175.51671 308.825 176.53233 308.825Q177.23546 308.825 177.82921 309.1375Q178.42296 309.4344 178.73546 309.95Q179.04796 310.46564 179.04796 311.0594Q179.04796 311.60626 178.75108 312.075Q178.45421 312.52814 177.87608 312.79376Q178.62608 312.96564 179.04796 313.52814Q179.46983 314.075 179.46983 314.91876Q179.46983 316.04376 178.64171 316.825Q177.82921 317.60626 176.57921 317.60626Q175.45421 317.60626 174.70421 316.9344Q173.95421 316.2469 173.84483 315.1844Z" fill-rule="nonzero"/><path fill="#000000" d="M252.09932 317.45L255.3962 308.85626L256.61493 308.85626L260.13055 317.45L258.8493 317.45L257.83368 314.84064L254.25557 314.84064L253.30244 317.45L252.09932 317.45ZM254.5837 313.91876L257.48993 313.91876L256.5993 311.54376Q256.17743 310.46564 255.98994 309.7625Q255.81807 310.59064 255.5212 311.40314L254.5837 313.91876ZM259.88055 317.45L259.88055 308.85626L260.94305 308.85626L260.94305 317.45L259.88055 317.45ZM267.1618 315.45L268.25555 315.575Q268.00555 316.52814 267.30243 317.0594Q266.5993 317.59064 265.52118 317.59064Q264.1618 317.59064 263.3493 316.7469Q262.55243 315.90314 262.55243 314.3875Q262.55243 312.825 263.36493 311.96564Q264.17743 311.09064 265.45868 311.09064Q266.70868 311.09064 267.48993 311.9344Q268.2868 312.77814 268.2868 314.325Q268.2868 314.41876 268.2868 314.60626L263.64618 314.60626Q263.70868 315.6375 264.2243 316.1844Q264.73993 316.71564 265.52118 316.71564Q266.0993 316.71564 266.50555 316.41876Q266.92743 316.10626 267.1618 315.45ZM263.70868 313.7469L267.17743 313.7469Q267.11493 312.95 266.7868 312.5594Q266.27118 311.95 265.4743 311.95Q264.73993 311.95 264.23993 312.4344Q263.75555 312.91876 263.70868 313.7469ZM269.20868 317.45L271.4743 314.21564L269.38055 311.23126L270.69305 311.23126L271.64618 312.6844Q271.9118 313.10626 272.08368 313.3875Q272.33368 312.9969 272.55243 312.7L273.5993 311.23126L274.86493 311.23126L272.70868 314.15314L275.02118 317.45L273.73993 317.45L272.45868 315.5125L272.11493 314.9969L270.4743 317.45L269.20868 317.45ZM275.0368 317.45L275.0368 308.85626L276.19305 308.85626L280.70868 315.60626L280.70868 308.85626L281.80243 308.85626L281.80243 317.45L280.63055 317.45L276.11493 310.7L276.11493 317.45L275.0368 317.45ZM288.1618 315.45L289.25555 315.575Q289.00555 316.52814 288.30243 317.0594Q287.5993 317.59064 286.52118 317.59064Q285.1618 317.59064 284.3493 316.7469Q283.55243 315.90314 283.55243 314.3875Q283.55243 312.825 284.36493 311.96564Q285.17743 311.09064 286.45868 311.09064Q287.70868 311.09064 288.48993 311.9344Q289.2868 312.77814 289.2868 314.325Q289.2868 314.41876 289.2868 314.60626L284.64618 314.60626Q284.70868 315.6375 285.2243 316.1844Q285.73993 316.71564 286.52118 316.71564Q287.0993 316.71564 287.50555 316.41876Q287.92743 316.10626 288.1618 315.45ZM284.70868 313.7469L288.17743 313.7469Q288.11493 312.95 287.7868 312.5594Q287.27118 311.95 286.4743 311.95Q285.73993 311.95 285.23993 312.4344Q284.75555 312.91876 284.70868 313.7469ZM293.20868 316.5125L293.36493 317.4344Q292.9118 317.52814 292.56805 317.52814Q291.98993 317.52814 291.67743 317.35626Q291.36493 317.16876 291.2243 316.8719Q291.0993 316.575 291.0993 315.6219L291.0993 312.04376L290.33368 312.04376L290.33368 311.23126L291.0993 311.23126L291.0993 309.6844L292.14618 309.0594L292.14618 311.23126L293.20868 311.23126L293.20868 312.04376L292.14618 312.04376L292.14618 315.6844Q292.14618 316.1375 292.19305 316.2625Q292.25555 316.3875 292.38055 316.46564Q292.50555 316.54376 292.73993 316.54376Q292.92743 316.54376 293.20868 316.5125Z" fill-rule="nonzero"/><path fill="#000000" d="M359.7757 317.45L359.7757 308.85626L361.49445 308.85626L363.5257 314.9344Q363.80695 315.79376 363.93195 316.21564Q364.07257 315.7469 364.38507 314.84064L366.44757 308.85626L367.97882 308.85626L367.97882 317.45L366.88507 317.45L366.88507 310.2625L364.38507 317.45L363.35382 317.45L360.86945 310.1375L360.86945 317.45L359.7757 317.45ZM368.29132 314.34064Q368.29132 312.60626 369.24445 311.77814Q370.04132 311.09064 371.19757 311.09064Q372.47882 311.09064 373.29132 311.9344Q374.11945 312.7625 374.11945 314.2469Q374.11945 315.45 373.76007 316.1375Q373.4007 316.825 372.69757 317.21564Q372.01007 317.59064 371.19757 317.59064Q369.9007 317.59064 369.0882 316.7625Q368.29132 315.91876 368.29132 314.34064ZM369.36945 314.34064Q369.36945 315.52814 369.88507 316.1219Q370.41632 316.71564 371.19757 316.71564Q371.99445 316.71564 372.51007 316.1219Q373.0257 315.52814 373.0257 314.3094Q373.0257 313.15314 372.49445 312.5594Q371.97882 311.96564 371.19757 311.96564Q370.41632 311.96564 369.88507 312.5594Q369.36945 313.1375 369.36945 314.34064ZM376.6507 317.45L375.66632 317.45L375.66632 308.85626L376.72882 308.85626L376.72882 311.91876Q377.4007 311.09064 378.43195 311.09064Q379.01007 311.09064 379.51007 311.325Q380.0257 311.54376 380.35382 311.96564Q380.69757 312.3875 380.88507 312.98126Q381.07257 313.575 381.07257 314.2469Q381.07257 315.84064 380.2757 316.71564Q379.47882 317.59064 378.38507 317.59064Q377.2757 317.59064 376.6507 316.66876L376.6507 317.45ZM376.63507 314.29376Q376.63507 315.40314 376.94757 315.90314Q377.44757 316.71564 378.29132 316.71564Q378.97882 316.71564 379.47882 316.1219Q379.99445 315.52814 379.99445 314.325Q379.99445 313.10626 379.51007 312.52814Q379.0257 311.95 378.3382 311.95Q377.6507 311.95 377.13507 312.5594Q376.63507 313.15314 376.63507 314.29376ZM382.68195 310.075L382.68195 308.85626L383.74445 308.85626L383.74445 310.075L382.68195 310.075ZM382.68195 317.45L382.68195 311.23126L383.74445 311.23126L383.74445 317.45L382.68195 317.45ZM385.6507 317.45L385.6507 308.85626L386.7132 308.85626L386.7132 317.45L385.6507 317.45ZM392.93195 315.45L394.0257 315.575Q393.7757 316.52814 393.07257 317.0594Q392.36945 317.59064 391.29132 317.59064Q389.93195 317.59064 389.11945 316.7469Q388.32257 315.90314 388.32257 314.3875Q388.32257 312.825 389.13507 311.96564Q389.94757 311.09064 391.22882 311.09064Q392.47882 311.09064 393.26007 311.9344Q394.05695 312.77814 394.05695 314.325Q394.05695 314.41876 394.05695 314.60626L389.41632 314.60626Q389.47882 315.6375 389.99445 316.1844Q390.51007 316.71564 391.29132 316.71564Q391.86945 316.71564 392.2757 316.41876Q392.69757 316.10626 392.93195 315.45ZM389.47882 313.7469L392.94757 313.7469Q392.88507 312.95 392.55695 312.5594Q392.04132 311.95 391.24445 311.95Q390.51007 311.95 390.01007 312.4344Q389.5257 312.91876 389.47882 313.7469ZM395.80695 317.45L395.80695 308.85626L396.9632 308.85626L401.47882 315.60626L401.47882 308.85626L402.57257 308.85626L402.57257 317.45L401.4007 317.45L396.88507 310.7L396.88507 317.45L395.80695 317.45ZM408.93195 315.45L410.0257 315.575Q409.7757 316.52814 409.07257 317.0594Q408.36945 317.59064 407.29132 317.59064Q405.93195 317.59064 405.11945 316.7469Q404.32257 315.90314 404.32257 314.3875Q404.32257 312.825 405.13507 311.96564Q405.94757 311.09064 407.22882 311.09064Q408.47882 311.09064 409.26007 311.9344Q410.05695 312.77814 410.05695 314.325Q410.05695 314.41876 410.05695 314.60626L405.41632 314.60626Q405.47882 315.6375 405.99445 316.1844Q406.51007 316.71564 407.29132 316.71564Q407.86945 316.71564 408.2757 316.41876Q408.69757 316.10626 408.93195 315.45ZM405.47882 313.7469L408.94757 313.7469Q408.88507 312.95 408.55695 312.5594Q408.04132 311.95 407.24445 311.95Q406.51007 311.95 406.01007 312.4344Q405.5257 312.91876 405.47882 313.7469ZM413.97882 316.5125L414.13507 317.4344Q413.68195 317.52814 413.3382 317.52814Q412.76007 317.52814 412.44757 317.35626Q412.13507 317.16876 411.99445 316.8719Q411.86945 316.575 411.86945 315.6219L411.86945 312.04376L411.10382 312.04376L411.10382 311.23126L411.86945 311.23126L411.86945 309.6844L412.91632 309.0594L412.91632 311.23126L413.97882 311.23126L413.97882 312.04376L412.91632 312.04376L412.91632 315.6844Q412.91632 316.1375 412.9632 316.2625Q413.0257 316.3875 413.1507 316.46564Q413.2757 316.54376 413.51007 316.54376Q413.69757 316.54376 413.97882 316.5125Z" fill-rule="nonzero"/><path fill="#000000" d="M438.0458 317.45L438.0458 308.85626L439.76456 308.85626L441.7958 314.9344Q442.07706 315.79376 442.20206 316.21564Q442.34268 315.7469 442.65518 314.84064L444.71768 308.85626L446.24893 308.85626L446.24893 317.45L445.15518 317.45L445.15518 310.2625L442.65518 317.45L441.62393 317.45L439.13956 310.1375L439.13956 317.45L438.0458 317.45ZM446.56143 314.34064Q446.56143 312.60626 447.51456 311.77814Q448.31143 311.09064 449.46768 311.09064Q450.74893 311.09064 451.56143 311.9344Q452.38956 312.7625 452.38956 314.2469Q452.38956 315.45 452.03018 316.1375Q451.6708 316.825 450.96768 317.21564Q450.28018 317.59064 449.46768 317.59064Q448.1708 317.59064 447.3583 316.7625Q446.56143 315.91876 446.56143 314.34064ZM447.63956 314.34064Q447.63956 315.52814 448.15518 316.1219Q448.68643 316.71564 449.46768 316.71564Q450.26456 316.71564 450.78018 316.1219Q451.2958 315.52814 451.2958 314.3094Q451.2958 313.15314 450.76456 312.5594Q450.24893 311.96564 449.46768 311.96564Q448.68643 311.96564 448.15518 312.5594Q447.63956 313.1375 447.63956 314.34064ZM457.9833 317.45L457.9833 316.66876Q457.38956 317.59064 456.24893 317.59064Q455.49893 317.59064 454.87393 317.1844Q454.24893 316.7625 453.90518 316.02814Q453.56143 315.29376 453.56143 314.34064Q453.56143 313.41876 453.87393 312.65314Q454.18643 311.8875 454.81143 311.4969Q455.43643 311.09064 456.20206 311.09064Q456.76456 311.09064 457.20206 311.325Q457.63956 311.5594 457.9208 311.9344L457.9208 308.85626L458.96768 308.85626L458.96768 317.45L457.9833 317.45ZM454.65518 314.34064Q454.65518 315.54376 455.15518 316.1375Q455.65518 316.71564 456.34268 316.71564Q457.03018 316.71564 457.51456 316.15314Q457.99893 315.59064 457.99893 314.4344Q457.99893 313.15314 457.49893 312.5594Q457.01456 311.96564 456.2958 311.96564Q455.59268 311.96564 455.12393 312.54376Q454.65518 313.10626 454.65518 314.34064ZM460.95206 310.075L460.95206 308.85626L462.01456 308.85626L462.01456 310.075L460.95206 310.075ZM460.95206 317.45L460.95206 311.23126L462.01456 311.23126L462.01456 317.45L460.95206 317.45ZM464.20206 317.45L464.20206 312.04376L463.26456 312.04376L463.26456 311.23126L464.20206 311.23126L464.20206 310.5594Q464.20206 309.9344 464.31143 309.6375Q464.46768 309.21564 464.84268 308.96564Q465.2333 308.71564 465.9208 308.71564Q466.37393 308.71564 466.90518 308.825L466.74893 309.73126Q466.4208 309.6844 466.12393 309.6844Q465.63956 309.6844 465.43643 309.8875Q465.24893 310.09064 465.24893 310.65314L465.24893 311.23126L466.46768 311.23126L466.46768 312.04376L465.24893 312.04376L465.24893 317.45L464.20206 317.45ZM466.95206 310.075L466.95206 308.85626L468.01456 308.85626L468.01456 310.075L466.95206 310.075ZM466.95206 317.45L466.95206 311.23126L468.01456 311.23126L468.01456 317.45L466.95206 317.45ZM474.20206 315.45L475.2958 315.575Q475.0458 316.52814 474.34268 317.0594Q473.63956 317.59064 472.56143 317.59064Q471.20206 317.59064 470.38956 316.7469Q469.59268 315.90314 469.59268 314.3875Q469.59268 312.825 470.40518 311.96564Q471.21768 311.09064 472.49893 311.09064Q473.74893 311.09064 474.53018 311.9344Q475.32706 312.77814 475.32706 314.325Q475.32706 314.41876 475.32706 314.60626L470.68643 314.60626Q470.74893 315.6375 471.26456 316.1844Q471.78018 316.71564 472.56143 316.71564Q473.13956 316.71564 473.5458 316.41876Q473.96768 316.10626 474.20206 315.45ZM470.74893 313.7469L474.21768 313.7469Q474.15518 312.95 473.82706 312.5594Q473.31143 311.95 472.51456 311.95Q471.78018 311.95 471.28018 312.4344Q470.7958 312.91876 470.74893 313.7469ZM480.9833 317.45L480.9833 316.66876Q480.38956 317.59064 479.24893 317.59064Q478.49893 317.59064 477.87393 317.1844Q477.24893 316.7625 476.90518 316.02814Q476.56143 315.29376 476.56143 314.34064Q476.56143 313.41876 476.87393 312.65314Q477.18643 311.8875 477.81143 311.4969Q478.43643 311.09064 479.20206 311.09064Q479.76456 311.09064 480.20206 311.325Q480.63956 311.5594 480.9208 311.9344L480.9208 308.85626L481.96768 308.85626L481.96768 317.45L480.9833 317.45ZM477.65518 314.34064Q477.65518 315.54376 478.15518 316.1375Q478.65518 316.71564 479.34268 316.71564Q480.03018 316.71564 480.51456 316.15314Q480.99893 315.59064 480.99893 314.4344Q480.99893 313.15314 480.49893 312.5594Q480.01456 311.96564 479.2958 311.96564Q478.59268 311.96564 478.12393 312.54376Q477.65518 313.10626 477.65518 314.34064ZM483.53018 314.8719L483.53018 313.8094L486.78018 313.8094L486.78018 314.8719L483.53018 314.8719ZM488.07706 317.45L488.07706 308.85626L491.0458 308.85626Q492.0458 308.85626 492.57706 308.98126Q493.31143 309.15314 493.82706 309.59064Q494.51456 310.16876 494.84268 311.075Q495.18643 311.96564 495.18643 313.10626Q495.18643 314.09064 494.95206 314.84064Q494.7333 315.59064 494.37393 316.09064Q494.01456 316.59064 493.57706 316.8719Q493.15518 317.15314 492.56143 317.3094Q491.96768 317.45 491.18643 317.45L488.07706 317.45ZM489.21768 316.4344L491.0458 316.4344Q491.90518 316.4344 492.38956 316.27814Q492.87393 316.1219 493.15518 315.825Q493.56143 315.4344 493.78018 314.7469Q494.01456 314.0594 494.01456 313.09064Q494.01456 311.7469 493.56143 311.02814Q493.12393 310.29376 492.49893 310.04376Q492.03018 309.8719 491.03018 309.8719L489.21768 309.8719L489.21768 316.4344ZM501.01456 316.6844Q500.4208 317.1844 499.87393 317.3875Q499.34268 317.59064 498.71768 317.59064Q497.68643 317.59064 497.13956 317.09064Q496.59268 316.59064 496.59268 315.8094Q496.59268 315.35626 496.7958 314.98126Q496.99893 314.59064 497.34268 314.3719Q497.68643 314.1375 498.1083 314.02814Q498.40518 313.9344 499.0458 313.85626Q500.31143 313.71564 500.9208 313.4969Q500.9208 313.27814 500.9208 313.23126Q500.9208 312.575 500.62393 312.3094Q500.21768 311.96564 499.4208 311.96564Q498.68643 311.96564 498.32706 312.23126Q497.96768 312.48126 497.7958 313.1375L496.76456 312.9969Q496.90518 312.34064 497.2333 311.9344Q497.56143 311.52814 498.1708 311.3094Q498.78018 311.09064 499.57706 311.09064Q500.37393 311.09064 500.87393 311.27814Q501.37393 311.46564 501.6083 311.7469Q501.84268 312.02814 501.93643 312.46564Q501.9833 312.73126 501.9833 313.4344L501.9833 314.84064Q501.9833 316.3094 502.0458 316.7Q502.12393 317.09064 502.32706 317.45L501.21768 317.45Q501.06143 317.1219 501.01456 316.6844ZM500.9208 314.325Q500.34268 314.5594 499.20206 314.73126Q498.5458 314.825 498.28018 314.95Q498.01456 315.0594 497.8583 315.27814Q497.71768 315.4969 497.71768 315.77814Q497.71768 316.2 498.03018 316.48126Q498.3583 316.7625 498.96768 316.7625Q499.57706 316.7625 500.0458 316.4969Q500.53018 316.23126 500.74893 315.7625Q500.9208 315.40314 500.9208 314.71564L500.9208 314.325ZM503.93643 317.45L503.93643 311.23126L504.88956 311.23126L504.88956 312.16876Q505.24893 311.5125 505.5458 311.3094Q505.8583 311.09064 506.2333 311.09064Q506.76456 311.09064 507.31143 311.41876L506.95206 312.40314Q506.56143 312.16876 506.18643 312.16876Q505.82706 312.16876 505.5458 312.3875Q505.28018 312.59064 505.1708 312.96564Q504.9833 313.52814 504.9833 314.1844L504.9833 317.45L503.93643 317.45ZM507.95206 317.45L507.95206 308.85626L509.01456 308.85626L509.01456 313.7625L511.49893 311.23126L512.8739 311.23126L510.4833 313.52814L513.1083 317.45L511.81143 317.45L509.74893 314.2625L509.01456 314.98126L509.01456 317.45L507.95206 317.45ZM520.21765 314.4344L521.34265 314.73126Q520.9833 316.1219 520.0614 316.85626Q519.1395 317.59064 517.7958 317.59064Q516.40515 317.59064 515.53015 317.02814Q514.65515 316.46564 514.202 315.40314Q513.7489 314.325 513.7489 313.09064Q513.7489 311.7469 514.2645 310.7469Q514.78015 309.7469 515.71765 309.23126Q516.6708 308.71564 517.8114 308.71564Q519.09265 308.71564 519.96765 309.3719Q520.8583 310.02814 521.202 311.21564L520.077 311.48126Q519.78015 310.54376 519.202 310.1219Q518.6395 309.6844 517.78015 309.6844Q516.7958 309.6844 516.1239 310.16876Q515.46765 310.6375 515.1864 311.4344Q514.9208 312.23126 514.9208 313.09064Q514.9208 314.1844 515.2333 314.9969Q515.5614 315.8094 516.2333 316.21564Q516.90515 316.6219 517.702 316.6219Q518.65515 316.6219 519.3114 316.075Q519.9833 315.52814 520.21765 314.4344ZM522.5614 314.34064Q522.5614 312.60626 523.5145 311.77814Q524.3114 311.09064 525.46765 311.09064Q526.7489 311.09064 527.5614 311.9344Q528.3895 312.7625 528.3895 314.2469Q528.3895 315.45 528.03015 316.1375Q527.6708 316.825 526.96765 317.21564Q526.28015 317.59064 525.46765 317.59064Q524.1708 317.59064 523.3583 316.7625Q522.5614 315.91876 522.5614 314.34064ZM523.6395 314.34064Q523.6395 315.52814 524.15515 316.1219Q524.6864 316.71564 525.46765 316.71564Q526.2645 316.71564 526.78015 316.1219Q527.2958 315.52814 527.2958 314.3094Q527.2958 313.15314 526.7645 312.5594Q526.2489 311.96564 525.46765 311.96564Q524.6864 311.96564 524.15515 312.5594Q523.6395 313.1375 523.6395 314.34064ZM531.6708 317.45L529.3114 311.23126L530.4208 311.23126L531.7645 314.95Q531.96765 315.5594 532.15515 316.2Q532.2958 315.71564 532.5458 315.02814L533.9364 311.23126L535.0145 311.23126L532.65515 317.45L531.6708 317.45ZM534.952 310.075L534.952 308.85626L536.0145 308.85626L536.0145 310.075L534.952 310.075ZM534.952 317.45L534.952 311.23126L536.0145 311.23126L536.0145 317.45L534.952 317.45ZM541.9833 317.45L541.9833 316.66876Q541.3895 317.59064 540.2489 317.59064Q539.4989 317.59064 538.8739 317.1844Q538.2489 316.7625 537.90515 316.02814Q537.5614 315.29376 537.5614 314.34064Q537.5614 313.41876 537.8739 312.65314Q538.1864 311.8875 538.8114 311.4969Q539.4364 311.09064 540.202 311.09064Q540.7645 311.09064 541.202 311.325Q541.6395 311.5594 541.9208 311.9344L541.9208 308.85626L542.96765 308.85626L542.96765 317.45L541.9833 317.45ZM538.65515 314.34064Q538.65515 315.54376 539.15515 316.1375Q539.65515 316.71564 540.34265 316.71564Q541.03015 316.71564 541.5145 316.15314Q541.9989 315.59064 541.9989 314.4344Q541.9989 313.15314 541.4989 312.5594Q541.0145 311.96564 540.2958 311.96564Q539.59265 311.96564 539.1239 312.54376Q538.65515 313.10626 538.65515 314.34064ZM545.077 317.45L545.077 308.85626L546.2333 308.85626L550.7489 315.60626L550.7489 308.85626L551.84265 308.85626L551.84265 317.45L550.6708 317.45L546.15515 310.7L546.15515 317.45L545.077 317.45ZM558.202 315.45L559.2958 315.575Q559.0458 316.52814 558.34265 317.0594Q557.6395 317.59064 556.5614 317.59064Q555.202 317.59064 554.3895 316.7469Q553.59265 315.90314 553.59265 314.3875Q553.59265 312.825 554.40515 311.96564Q555.21765 311.09064 556.4989 311.09064Q557.7489 311.09064 558.53015 311.9344Q559.327 312.77814 559.327 314.325Q559.327 314.41876 559.327 314.60626L554.6864 314.60626Q554.7489 315.6375 555.2645 316.1844Q555.78015 316.71564 556.5614 316.71564Q557.1395 316.71564 557.5458 316.41876Q557.96765 316.10626 558.202 315.45ZM554.7489 313.7469L558.21765 313.7469Q558.15515 312.95 557.827 312.5594Q557.3114 311.95 556.5145 311.95Q555.78015 311.95 555.28015 312.4344Q554.7958 312.91876 554.7489 313.7469ZM563.2489 316.5125L563.40515 317.4344Q562.952 317.52814 562.6083 317.52814Q562.03015 317.52814 561.71765 317.35626Q561.40515 317.16876 561.2645 316.8719Q561.1395 316.575 561.1395 315.6219L561.1395 312.04376L560.3739 312.04376L560.3739 311.23126L561.1395 311.23126L561.1395 309.6844L562.1864 309.0594L562.1864 311.23126L563.2489 311.23126L563.2489 312.04376L562.1864 312.04376L562.1864 315.6844Q562.1864 316.1375 562.2333 316.2625Q562.2958 316.3875 562.4208 316.46564Q562.5458 316.54376 562.78015 316.54376Q562.96765 316.54376 563.2489 316.5125Z" fill-rule="nonzero"/><path fill="#4285f4" d="M180.5 56.916668C180.5 56.364384 180.94771 55.916668 181.5 55.916668L191.5 55.916668C192.05229 55.916668 192.5 56.364384 192.5 56.916668L192.5 66.916664C192.5 67.46895 192.05229 67.916664 191.5 67.916664L181.5 67.916664C180.94771 67.916664 180.5 67.46895 180.5 66.916664Z" fill-rule="nonzero"/><path fill="#1a1a1a" d="M201.07812 61.729164Q201.07812 59.58854 202.21875 58.385414Q203.375 57.166664 205.1875 57.166664Q206.39062 57.166664 207.34375 57.74479Q208.29688 58.30729 208.79688 59.322914Q209.29688 60.33854 209.29688 61.635414Q209.29688 62.93229 208.76562 63.96354Q208.23438 64.99479 207.26562 65.52604Q206.3125 66.05729 205.1875 66.05729Q203.96875 66.05729 203.01562 65.479164Q202.0625 64.885414 201.5625 63.885414Q201.07812 62.86979 201.07812 61.729164ZM202.25 61.74479Q202.25 63.30729 203.07812 64.197914Q203.92188 65.08854 205.1875 65.08854Q206.46875 65.08854 207.29688 64.197914Q208.125 63.291664 208.125 61.61979Q208.125 60.572914 207.76562 59.791664Q207.42188 59.010414 206.73438 58.58854Q206.04688 58.15104 205.20312 58.15104Q204.0 58.15104 203.125 58.979164Q202.25 59.80729 202.25 61.74479ZM210.28125 65.916664L210.28125 59.697914L211.23438 59.697914L211.23438 60.635414Q211.59375 59.979164 211.89062 59.77604Q212.20312 59.55729 212.57812 59.55729Q213.10938 59.55729 213.65625 59.885414L213.29688 60.86979Q212.90625 60.635414 212.53125 60.635414Q212.17188 60.635414 211.89062 60.854164Q211.625 61.05729 211.51562 61.43229Q211.32812 61.99479 211.32812 62.65104L211.32812 65.916664L210.28125 65.916664ZM214.29688 58.541664L214.29688 57.322914L215.35938 57.322914L215.35938 58.541664L214.29688 58.541664ZM214.29688 65.916664L214.29688 59.697914L215.35938 59.697914L215.35938 65.916664L214.29688 65.916664ZM217.09375 66.43229L218.125 66.58854Q218.1875 67.05729 218.48438 67.27604Q218.875 67.572914 219.54688 67.572914Q220.28125 67.572914 220.67188 67.27604Q221.07812 66.979164 221.21875 66.46354Q221.3125 66.135414 221.29688 65.104164Q220.60938 65.916664 219.57812 65.916664Q218.29688 65.916664 217.59375 64.99479Q216.89062 64.05729 216.89062 62.77604Q216.89062 61.885414 217.20312 61.135414Q217.53125 60.36979 218.14062 59.96354Q218.75 59.55729 219.57812 59.55729Q220.6875 59.55729 221.40625 60.447914L221.40625 59.697914L222.375 59.697914L222.375 65.072914Q222.375 66.52604 222.07812 67.135414Q221.78125 67.74479 221.14062 68.08854Q220.5 68.447914 219.5625 68.447914Q218.45312 68.447914 217.76562 67.947914Q217.07812 67.447914 217.09375 66.43229ZM217.96875 62.697914Q217.96875 63.916664 218.45312 64.479164Q218.9375 65.041664 219.67188 65.041664Q220.40625 65.041664 220.89062 64.479164Q221.39062 63.916664 221.39062 62.729164Q221.39062 61.58854 220.875 61.010414Q220.375 60.43229 219.65625 60.43229Q218.95312 60.43229 218.45312 61.010414Q217.96875 61.572914 217.96875 62.697914ZM224.29688 58.541664L224.29688 57.322914L225.35938 57.322914L225.35938 58.541664L224.29688 58.541664ZM224.29688 65.916664L224.29688 59.697914L225.35938 59.697914L225.35938 65.916664L224.29688 65.916664ZM227.29688 65.916664L227.29688 59.697914L228.23438 59.697914L228.23438 60.572914Q228.92188 59.55729 230.21875 59.55729Q230.78125 59.55729 231.25 59.760414Q231.73438 59.96354 231.96875 60.291664Q232.20312 60.61979 232.29688 61.05729Q232.34375 61.354164 232.34375 62.08854L232.34375 65.916664L231.29688 65.916664L231.29688 62.135414Q231.29688 61.479164 231.17188 61.166664Q231.04688 60.854164 230.73438 60.666664Q230.42188 60.46354 230.0 60.46354Q229.32812 60.46354 228.82812 60.90104Q228.34375 61.322914 228.34375 62.510414L228.34375 65.916664L227.29688 65.916664ZM238.35938 65.15104Q237.76562 65.65104 237.21875 65.854164Q236.6875 66.05729 236.0625 66.05729Q235.03125 66.05729 234.48438 65.55729Q233.9375 65.05729 233.9375 64.27604Q233.9375 63.822914 234.14062 63.447914Q234.34375 63.05729 234.6875 62.83854Q235.03125 62.604164 235.45312 62.49479Q235.75 62.40104 236.39062 62.322914Q237.65625 62.18229 238.26562 61.96354Q238.26562 61.74479 238.26562 61.697914Q238.26562 61.041664 237.96875 60.77604Q237.5625 60.43229 236.76562 60.43229Q236.03125 60.43229 235.67188 60.697914Q235.3125 60.947914 235.14062 61.604164L234.10938 61.46354Q234.25 60.80729 234.57812 60.40104Q234.90625 59.99479 235.51562 59.77604Q236.125 59.55729 236.92188 59.55729Q237.71875 59.55729 238.21875 59.74479Q238.71875 59.93229 238.95312 60.21354Q239.1875 60.49479 239.28125 60.93229Q239.32812 61.197914 239.32812 61.90104L239.32812 63.30729Q239.32812 64.77604 239.39062 65.166664Q239.46875 65.55729 239.67188 65.916664L238.5625 65.916664Q238.40625 65.58854 238.35938 65.15104ZM238.26562 62.791664Q237.6875 63.02604 236.54688 63.197914Q235.89062 63.291664 235.625 63.416664Q235.35938 63.52604 235.20312 63.74479Q235.0625 63.96354 235.0625 64.24479Q235.0625 64.666664 235.375 64.947914Q235.70312 65.229164 236.3125 65.229164Q236.92188 65.229164 237.39062 64.96354Q237.875 64.697914 238.09375 64.229164Q238.26562 63.86979 238.26562 63.18229L238.26562 62.791664ZM241.26562 65.916664L241.26562 57.322914L242.32812 57.322914L242.32812 65.916664L241.26562 65.916664ZM247.625 65.916664L247.625 57.322914L248.75 57.322914L248.75 65.916664L247.625 65.916664ZM250.29688 65.916664L250.29688 59.697914L251.23438 59.697914L251.23438 60.572914Q251.53125 60.104164 252.01562 59.83854Q252.5 59.55729 253.125 59.55729Q253.8125 59.55729 254.25 59.83854Q254.70312 60.11979 254.875 60.635414Q255.625 59.55729 256.79688 59.55729Q257.73438 59.55729 258.21875 60.072914Q258.71875 60.572914 258.71875 61.65104L258.71875 65.916664L257.67188 65.916664L257.67188 61.99479Q257.67188 61.36979 257.5625 61.08854Q257.46875 60.80729 257.20312 60.635414Q256.9375 60.46354 256.5625 60.46354Q255.90625 60.46354 255.46875 60.90104Q255.04688 61.33854 255.04688 62.30729L255.04688 65.916664L253.98438 65.916664L253.98438 61.86979Q253.98438 61.166664 253.71875 60.822914Q253.46875 60.46354 252.89062 60.46354Q252.4375 60.46354 252.0625 60.697914Q251.6875 60.93229 251.51562 61.385414Q251.34375 61.83854 251.34375 62.68229L251.34375 65.916664L250.29688 65.916664ZM265.35938 65.15104Q264.76562 65.65104 264.21875 65.854164Q263.6875 66.05729 263.0625 66.05729Q262.03125 66.05729 261.48438 65.55729Q260.9375 65.05729 260.9375 64.27604Q260.9375 63.822914 261.14062 63.447914Q261.34375 63.05729 261.6875 62.83854Q262.03125 62.604164 262.45312 62.49479Q262.75 62.40104 263.39062 62.322914Q264.65625 62.18229 265.26562 61.96354Q265.26562 61.74479 265.26562 61.697914Q265.26562 61.041664 264.96875 60.77604Q264.5625 60.43229 263.76562 60.43229Q263.03125 60.43229 262.67188 60.697914Q262.3125 60.947914 262.14062 61.604164L261.10938 61.46354Q261.25 60.80729 261.57812 60.40104Q261.90625 59.99479 262.51562 59.77604Q263.125 59.55729 263.92188 59.55729Q264.71875 59.55729 265.21875 59.74479Q265.71875 59.93229 265.95312 60.21354Q266.1875 60.49479 266.28125 60.93229Q266.32812 61.197914 266.32812 61.90104L266.32812 63.30729Q266.32812 64.77604 266.39062 65.166664Q266.46875 65.55729 266.67188 65.916664L265.5625 65.916664Q265.40625 65.58854 265.35938 65.15104ZM265.26562 62.791664Q264.6875 63.02604 263.54688 63.197914Q262.89062 63.291664 262.625 63.416664Q262.35938 63.52604 262.20312 63.74479Q262.0625 63.96354 262.0625 64.24479Q262.0625 64.666664 262.375 64.947914Q262.70312 65.229164 263.3125 65.229164Q263.92188 65.229164 264.39062 64.96354Q264.875 64.697914 265.09375 64.229164Q265.26562 63.86979 265.26562 63.18229L265.26562 62.791664ZM268.09375 66.43229L269.125 66.58854Q269.1875 67.05729 269.48438 67.27604Q269.875 67.572914 270.54688 67.572914Q271.28125 67.572914 271.67188 67.27604Q272.07812 66.979164 272.21875 66.46354Q272.3125 66.135414 272.29688 65.104164Q271.60938 65.916664 270.57812 65.916664Q269.29688 65.916664 268.59375 64.99479Q267.89062 64.05729 267.89062 62.77604Q267.89062 61.885414 268.20312 61.135414Q268.53125 60.36979 269.14062 59.96354Q269.75 59.55729 270.57812 59.55729Q271.6875 59.55729 272.40625 60.447914L272.40625 59.697914L273.375 59.697914L273.375 65.072914Q273.375 66.52604 273.07812 67.135414Q272.78125 67.74479 272.14062 68.08854Q271.5 68.447914 270.5625 68.447914Q269.45312 68.447914 268.76562 67.947914Q268.07812 67.447914 268.09375 66.43229ZM268.96875 62.697914Q268.96875 63.916664 269.45312 64.479164Q269.9375 65.041664 270.67188 65.041664Q271.40625 65.041664 271.89062 64.479164Q272.39062 63.916664 272.39062 62.729164Q272.39062 61.58854 271.875 61.010414Q271.375 60.43229 270.65625 60.43229Q269.95312 60.43229 269.45312 61.010414Q268.96875 61.572914 268.96875 62.697914ZM279.54688 63.916664L280.64062 64.041664Q280.39062 64.99479 279.6875 65.52604Q278.98438 66.05729 277.90625 66.05729Q276.54688 66.05729 275.73438 65.21354Q274.9375 64.36979 274.9375 62.854164Q274.9375 61.291664 275.75 60.43229Q276.5625 59.55729 277.84375 59.55729Q279.09375 59.55729 279.875 60.40104Q280.67188 61.24479 280.67188 62.791664Q280.67188 62.885414 280.67188 63.072914L276.03125 63.072914Q276.09375 64.104164 276.60938 64.65104Q277.125 65.18229 277.90625 65.18229Q278.48438 65.18229 278.89062 64.885414Q279.3125 64.572914 279.54688 63.916664ZM276.09375 62.21354L279.5625 62.21354Q279.5 61.416664 279.17188 61.02604Q278.65625 60.416664 277.85938 60.416664Q277.125 60.416664 276.625 60.90104Q276.14062 61.385414 276.09375 62.21354Z" fill-rule="nonzero"/><path fill="#ea4335" d="M297.5 56.916668C297.5 56.364384 297.94772 55.916668 298.5 55.916668L308.5 55.916668C309.05228 55.916668 309.5 56.364384 309.5 56.916668L309.5 66.916664C309.5 67.46895 309.05228 67.916664 308.5 67.916664L298.5 67.916664C297.94772 67.916664 297.5 67.46895 297.5 66.916664Z" fill-rule="nonzero"/><path fill="#1a1a1a" d="M318.04688 63.15104L319.10938 63.05729Q319.1875 63.71354 319.46875 64.11979Q319.75 64.52604 320.32812 64.791664Q320.92188 65.041664 321.65625 65.041664Q322.29688 65.041664 322.79688 64.854164Q323.29688 64.65104 323.53125 64.322914Q323.78125 63.979164 323.78125 63.58854Q323.78125 63.18229 323.54688 62.885414Q323.3125 62.572914 322.78125 62.36979Q322.42188 62.229164 321.23438 61.947914Q320.0625 61.666664 319.59375 61.416664Q318.96875 61.08854 318.67188 60.61979Q318.375 60.135414 318.375 59.541664Q318.375 58.90104 318.73438 58.33854Q319.10938 57.760414 319.8125 57.479164Q320.53125 57.18229 321.39062 57.18229Q322.34375 57.18229 323.07812 57.49479Q323.8125 57.791664 324.20312 58.40104Q324.59375 58.99479 324.625 59.74479L323.53125 59.822914Q323.4375 59.010414 322.92188 58.604164Q322.42188 58.18229 321.4375 58.18229Q320.40625 58.18229 319.9375 58.55729Q319.46875 58.93229 319.46875 59.46354Q319.46875 59.93229 319.79688 60.229164Q320.125 60.52604 321.5 60.83854Q322.89062 61.15104 323.40625 61.385414Q324.15625 61.74479 324.51562 62.27604Q324.875 62.791664 324.875 63.49479Q324.875 64.18229 324.48438 64.791664Q324.09375 65.385414 323.35938 65.729164Q322.625 66.05729 321.70312 66.05729Q320.53125 66.05729 319.73438 65.729164Q318.95312 65.385414 318.5 64.697914Q318.0625 64.010414 318.04688 63.15104ZM330.54688 63.916664L331.64062 64.041664Q331.39062 64.99479 330.6875 65.52604Q329.98438 66.05729 328.90625 66.05729Q327.54688 66.05729 326.73438 65.21354Q325.9375 64.36979 325.9375 62.854164Q325.9375 61.291664 326.75 60.43229Q327.5625 59.55729 328.84375 59.55729Q330.09375 59.55729 330.875 60.40104Q331.67188 61.24479 331.67188 62.791664Q331.67188 62.885414 331.67188 63.072914L327.03125 63.072914Q327.09375 64.104164 327.60938 64.65104Q328.125 65.18229 328.90625 65.18229Q329.48438 65.18229 329.89062 64.885414Q330.3125 64.572914 330.54688 63.916664ZM327.09375 62.21354L330.5625 62.21354Q330.5 61.416664 330.17188 61.02604Q329.65625 60.416664 328.85938 60.416664Q328.125 60.416664 327.625 60.90104Q327.14062 61.385414 327.09375 62.21354ZM333.09375 66.43229L334.125 66.58854Q334.1875 67.05729 334.48438 67.27604Q334.875 67.572914 335.54688 67.572914Q336.28125 67.572914 336.67188 67.27604Q337.07812 66.979164 337.21875 66.46354Q337.3125 66.135414 337.29688 65.104164Q336.60938 65.916664 335.57812 65.916664Q334.29688 65.916664 333.59375 64.99479Q332.89062 64.05729 332.89062 62.77604Q332.89062 61.885414 333.20312 61.135414Q333.53125 60.36979 334.14062 59.96354Q334.75 59.55729 335.57812 59.55729Q336.6875 59.55729 337.40625 60.447914L337.40625 59.697914L338.375 59.697914L338.375 65.072914Q338.375 66.52604 338.07812 67.135414Q337.78125 67.74479 337.14062 68.08854Q336.5 68.447914 335.5625 68.447914Q334.45312 68.447914 333.76562 67.947914Q333.07812 67.447914 333.09375 66.43229ZM333.96875 62.697914Q333.96875 63.916664 334.45312 64.479164Q334.9375 65.041664 335.67188 65.041664Q336.40625 65.041664 336.89062 64.479164Q337.39062 63.916664 337.39062 62.729164Q337.39062 61.58854 336.875 61.010414Q336.375 60.43229 335.65625 60.43229Q334.95312 60.43229 334.45312 61.010414Q333.96875 61.572914 333.96875 62.697914ZM340.29688 65.916664L340.29688 59.697914L341.23438 59.697914L341.23438 60.572914Q341.53125 60.104164 342.01562 59.83854Q342.5 59.55729 343.125 59.55729Q343.8125 59.55729 344.25 59.83854Q344.70312 60.11979 344.875 60.635414Q345.625 59.55729 346.79688 59.55729Q347.73438 59.55729 348.21875 60.072914Q348.71875 60.572914 348.71875 61.65104L348.71875 65.916664L347.67188 65.916664L347.67188 61.99479Q347.67188 61.36979 347.5625 61.08854Q347.46875 60.80729 347.20312 60.635414Q346.9375 60.46354 346.5625 60.46354Q345.90625 60.46354 345.46875 60.90104Q345.04688 61.33854 345.04688 62.30729L345.04688 65.916664L343.98438 65.916664L343.98438 61.86979Q343.98438 61.166664 343.71875 60.822914Q343.46875 60.46354 342.89062 60.46354Q342.4375 60.46354 342.0625 60.697914Q341.6875 60.93229 341.51562 61.385414Q341.34375 61.83854 341.34375 62.68229L341.34375 65.916664L340.29688 65.916664ZM355.54688 63.916664L356.64062 64.041664Q356.39062 64.99479 355.6875 65.52604Q354.98438 66.05729 353.90625 66.05729Q352.54688 66.05729 351.73438 65.21354Q350.9375 64.36979 350.9375 62.854164Q350.9375 61.291664 351.75 60.43229Q352.5625 59.55729 353.84375 59.55729Q355.09375 59.55729 355.875 60.40104Q356.67188 61.24479 356.67188 62.791664Q356.67188 62.885414 356.67188 63.072914L352.03125 63.072914Q352.09375 64.104164 352.60938 64.65104Q353.125 65.18229 353.90625 65.18229Q354.48438 65.18229 354.89062 64.885414Q355.3125 64.572914 355.54688 63.916664ZM352.09375 62.21354L355.5625 62.21354Q355.5 61.416664 355.17188 61.02604Q354.65625 60.416664 353.85938 60.416664Q353.125 60.416664 352.625 60.90104Q352.14062 61.385414 352.09375 62.21354ZM358.29688 65.916664L358.29688 59.697914L359.23438 59.697914L359.23438 60.572914Q359.92188 59.55729 361.21875 59.55729Q361.78125 59.55729 362.25 59.760414Q362.73438 59.96354 362.96875 60.291664Q363.20312 60.61979 363.29688 61.05729Q363.34375 61.354164 363.34375 62.08854L363.34375 65.916664L362.29688 65.916664L362.29688 62.135414Q362.29688 61.479164 362.17188 61.166664Q362.04688 60.854164 361.73438 60.666664Q361.42188 60.46354 361.0 60.46354Q360.32812 60.46354 359.82812 60.90104Q359.34375 61.322914 359.34375 62.510414L359.34375 65.916664L358.29688 65.916664ZM367.59375 64.979164L367.75 65.90104Q367.29688 65.99479 366.95312 65.99479Q366.375 65.99479 366.0625 65.822914Q365.75 65.635414 365.60938 65.33854Q365.48438 65.041664 365.48438 64.08854L365.48438 60.510414L364.71875 60.510414L364.71875 59.697914L365.48438 59.697914L365.48438 58.15104L366.53125 57.52604L366.53125 59.697914L367.59375 59.697914L367.59375 60.510414L366.53125 60.510414L366.53125 64.15104Q366.53125 64.604164 366.57812 64.729164Q366.64062 64.854164 366.76562 64.93229Q366.89062 65.010414 367.125 65.010414Q367.3125 65.010414 367.59375 64.979164ZM372.54688 63.916664L373.64062 64.041664Q373.39062 64.99479 372.6875 65.52604Q371.98438 66.05729 370.90625 66.05729Q369.54688 66.05729 368.73438 65.21354Q367.9375 64.36979 367.9375 62.854164Q367.9375 61.291664 368.75 60.43229Q369.5625 59.55729 370.84375 59.55729Q372.09375 59.55729 372.875 60.40104Q373.67188 61.24479 373.67188 62.791664Q373.67188 62.885414 373.67188 63.072914L369.03125 63.072914Q369.09375 64.104164 369.60938 64.65104Q370.125 65.18229 370.90625 65.18229Q371.48438 65.18229 371.89062 64.885414Q372.3125 64.572914 372.54688 63.916664ZM369.09375 62.21354L372.5625 62.21354Q372.5 61.416664 372.17188 61.02604Q371.65625 60.416664 370.85938 60.416664Q370.125 60.416664 369.625 60.90104Q369.14062 61.385414 369.09375 62.21354ZM379.32812 65.916664L379.32812 65.135414Q378.73438 66.05729 377.59375 66.05729Q376.84375 66.05729 376.21875 65.65104Q375.59375 65.229164 375.25 64.49479Q374.90625 63.760414 374.90625 62.80729Q374.90625 61.885414 375.21875 61.11979Q375.53125 60.354164 376.15625 59.96354Q376.78125 59.55729 377.54688 59.55729Q378.10938 59.55729 378.54688 59.791664Q378.98438 60.02604 379.26562 60.40104L379.26562 57.322914L380.3125 57.322914L380.3125 65.916664L379.32812 65.916664ZM376.0 62.80729Q376.0 64.010414 376.5 64.604164Q377.0 65.18229 377.6875 65.18229Q378.375 65.18229 378.85938 64.61979Q379.34375 64.05729 379.34375 62.90104Q379.34375 61.61979 378.84375 61.02604Q378.35938 60.43229 377.64062 60.43229Q376.9375 60.43229 376.46875 61.010414Q376.0 61.572914 376.0 62.80729ZM385.625 65.916664L385.625 57.322914L386.75 57.322914L386.75 65.916664L385.625 65.916664ZM388.29688 65.916664L388.29688 59.697914L389.23438 59.697914L389.23438 60.572914Q389.53125 60.104164 390.01562 59.83854Q390.5 59.55729 391.125 59.55729Q391.8125 59.55729 392.25 59.83854Q392.70312 60.11979 392.875 60.635414Q393.625 59.55729 394.79688 59.55729Q395.73438 59.55729 396.21875 60.072914Q396.71875 60.572914 396.71875 61.65104L396.71875 65.916664L395.67188 65.916664L395.67188 61.99479Q395.67188 61.36979 395.5625 61.08854Q395.46875 60.80729 395.20312 60.635414Q394.9375 60.46354 394.5625 60.46354Q393.90625 60.46354 393.46875 60.90104Q393.04688 61.33854 393.04688 62.30729L393.04688 65.916664L391.98438 65.916664L391.98438 61.86979Q391.98438 61.166664 391.71875 60.822914Q391.46875 60.46354 390.89062 60.46354Q390.4375 60.46354 390.0625 60.697914Q389.6875 60.93229 389.51562 61.385414Q389.34375 61.83854 389.34375 62.68229L389.34375 65.916664L388.29688 65.916664ZM403.35938 65.15104Q402.76562 65.65104 402.21875 65.854164Q401.6875 66.05729 401.0625 66.05729Q400.03125 66.05729 399.48438 65.55729Q398.9375 65.05729 398.9375 64.27604Q398.9375 63.822914 399.14062 63.447914Q399.34375 63.05729 399.6875 62.83854Q400.03125 62.604164 400.45312 62.49479Q400.75 62.40104 401.39062 62.322914Q402.65625 62.18229 403.26562 61.96354Q403.26562 61.74479 403.26562 61.697914Q403.26562 61.041664 402.96875 60.77604Q402.5625 60.43229 401.76562 60.43229Q401.03125 60.43229 400.67188 60.697914Q400.3125 60.947914 400.14062 61.604164L399.10938 61.46354Q399.25 60.80729 399.57812 60.40104Q399.90625 59.99479 400.51562 59.77604Q401.125 59.55729 401.92188 59.55729Q402.71875 59.55729 403.21875 59.74479Q403.71875 59.93229 403.95312 60.21354Q404.1875 60.49479 404.28125 60.93229Q404.32812 61.197914 404.32812 61.90104L404.32812 63.30729Q404.32812 64.77604 404.39062 65.166664Q404.46875 65.55729 404.67188 65.916664L403.5625 65.916664Q403.40625 65.58854 403.35938 65.15104ZM403.26562 62.791664Q402.6875 63.02604 401.54688 63.197914Q400.89062 63.291664 400.625 63.416664Q400.35938 63.52604 400.20312 63.74479Q400.0625 63.96354 400.0625 64.24479Q400.0625 64.666664 400.375 64.947914Q400.70312 65.229164 401.3125 65.229164Q401.92188 65.229164 402.39062 64.96354Q402.875 64.697914 403.09375 64.229164Q403.26562 63.86979 403.26562 63.18229L403.26562 62.791664ZM406.09375 66.43229L407.125 66.58854Q407.1875 67.05729 407.48438 67.27604Q407.875 67.572914 408.54688 67.572914Q409.28125 67.572914 409.67188 67.27604Q410.07812 66.979164 410.21875 66.46354Q410.3125 66.135414 410.29688 65.104164Q409.60938 65.916664 408.57812 65.916664Q407.29688 65.916664 406.59375 64.99479Q405.89062 64.05729 405.89062 62.77604Q405.89062 61.885414 406.20312 61.135414Q406.53125 60.36979 407.14062 59.96354Q407.75 59.55729 408.57812 59.55729Q409.6875 59.55729 410.40625 60.447914L410.40625 59.697914L411.375 59.697914L411.375 65.072914Q411.375 66.52604 411.07812 67.135414Q410.78125 67.74479 410.14062 68.08854Q409.5 68.447914 408.5625 68.447914Q407.45312 68.447914 406.76562 67.947914Q406.07812 67.447914 406.09375 66.43229ZM406.96875 62.697914Q406.96875 63.916664 407.45312 64.479164Q407.9375 65.041664 408.67188 65.041664Q409.40625 65.041664 409.89062 64.479164Q410.39062 63.916664 410.39062 62.729164Q410.39062 61.58854 409.875 61.010414Q409.375 60.43229 408.65625 60.43229Q407.95312 60.43229 407.45312 61.010414Q406.96875 61.572914 406.96875 62.697914ZM417.54688 63.916664L418.64062 64.041664Q418.39062 64.99479 417.6875 65.52604Q416.98438 66.05729 415.90625 66.05729Q414.54688 66.05729 413.73438 65.21354Q412.9375 64.36979 412.9375 62.854164Q412.9375 61.291664 413.75 60.43229Q414.5625 59.55729 415.84375 59.55729Q417.09375 59.55729 417.875 60.40104Q418.67188 61.24479 418.67188 62.791664Q418.67188 62.885414 418.67188 63.072914L414.03125 63.072914Q414.09375 64.104164 414.60938 64.65104Q415.125 65.18229 415.90625 65.18229Q416.48438 65.18229 416.89062 64.885414Q417.3125 64.572914 417.54688 63.916664ZM414.09375 62.21354L417.5625 62.21354Q417.5 61.416664 417.17188 61.02604Q416.65625 60.416664 415.85938 60.416664Q415.125 60.416664 414.625 60.90104Q414.14062 61.385414 414.09375 62.21354Z" fill-rule="nonzero"/><path fill="#757575" d="M18.51875 37.55L24.01875 23.2375L26.065624 23.2375L31.925 37.55L29.76875 37.55L28.096874 33.20625L22.1125 33.20625L20.534374 37.55L18.51875 37.55ZM22.659374 31.675L27.503124 31.675L26.01875 27.70625Q25.33125 25.89375 25.003124 24.7375Q24.721874 26.1125 24.221874 27.471874L22.659374 31.675ZM39.64375 33.753124L41.3625 33.971874Q41.08125 35.76875 39.909374 36.784374Q38.753124 37.784374 37.05 37.784374Q34.925 37.784374 33.628124 36.39375Q32.33125 35.003124 32.33125 32.409374Q32.33125 30.721874 32.878124 29.471874Q33.440624 28.20625 34.58125 27.58125Q35.721874 26.940624 37.065624 26.940624Q38.753124 26.940624 39.815624 27.8Q40.89375 28.659374 41.20625 30.221874L39.4875 30.4875Q39.253124 29.440624 38.628124 28.925Q38.003124 28.39375 37.128124 28.39375Q35.8 28.39375 34.971874 29.346874Q34.14375 30.3 34.14375 32.346874Q34.14375 34.440624 34.940624 35.39375Q35.7375 36.33125 37.034374 36.33125Q38.065624 36.33125 38.753124 35.70625Q39.45625 35.065624 39.64375 33.753124ZM49.64375 33.753124L51.3625 33.971874Q51.08125 35.76875 49.909374 36.784374Q48.753124 37.784374 47.05 37.784374Q44.925 37.784374 43.628124 36.39375Q42.33125 35.003124 42.33125 32.409374Q42.33125 30.721874 42.878124 29.471874Q43.440624 28.20625 44.58125 27.58125Q45.721874 26.940624 47.065624 26.940624Q48.753124 26.940624 49.815624 27.8Q50.89375 28.659374 51.20625 30.221874L49.4875 30.4875Q49.253124 29.440624 48.628124 28.925Q48.003124 28.39375 47.128124 28.39375Q45.8 28.39375 44.971874 29.346874Q44.14375 30.3 44.14375 32.346874Q44.14375 34.440624 44.940624 35.39375Q45.7375 36.33125 47.034374 36.33125Q48.065624 36.33125 48.753124 35.70625Q49.45625 35.065624 49.64375 33.753124ZM59.659374 37.55L59.659374 36.01875Q58.45625 37.784374 56.378124 37.784374Q55.45625 37.784374 54.659374 37.440624Q53.8625 37.08125 53.471874 36.55Q53.096874 36.01875 52.940624 35.2375Q52.83125 34.721874 52.83125 33.596874L52.83125 27.175L54.58125 27.175L54.58125 32.925Q54.58125 34.3 54.690624 34.784374Q54.8625 35.471874 55.39375 35.878124Q55.940624 36.26875 56.721874 36.26875Q57.51875 36.26875 58.20625 35.8625Q58.909374 35.45625 59.190624 34.76875Q59.4875 34.065624 59.4875 32.7375L59.4875 27.175L61.2375 27.175L61.2375 37.55L59.659374 37.55ZM62.846874 37.55L62.846874 27.175L64.425 27.175L64.425 28.753124Q65.03438 27.64375 65.55 27.3Q66.06563 26.940624 66.675 26.940624Q67.56563 26.940624 68.4875 27.503124L67.87813 29.14375Q67.2375 28.753124 66.59688 28.753124Q66.01875 28.753124 65.55 29.1125Q65.09688 29.45625 64.89375 30.065624Q64.6125 31.003124 64.6125 32.1125L64.6125 37.55L62.846874 37.55ZM76.64375 36.26875Q75.65938 37.096874 74.75313 37.440624Q73.84688 37.784374 72.81563 37.784374Q71.1125 37.784374 70.19063 36.95625Q69.26875 36.1125 69.26875 34.815624Q69.26875 34.05 69.6125 33.425Q69.97188 32.8 70.53438 32.425Q71.09688 32.034374 71.8 31.83125Q72.31563 31.70625 73.3625 31.565624Q75.4875 31.315624 76.4875 30.971874Q76.50313 30.6125 76.50313 30.503124Q76.50313 29.440624 76.00313 28.9875Q75.33125 28.39375 74.00313 28.39375Q72.75313 28.39375 72.15938 28.83125Q71.58125 29.26875 71.3 30.378124L69.58125 30.14375Q69.81563 29.034374 70.34688 28.3625Q70.87813 27.675 71.89375 27.315624Q72.90938 26.940624 74.25313 26.940624Q75.58125 26.940624 76.40938 27.253124Q77.2375 27.565624 77.62813 28.05Q78.01875 28.51875 78.175 29.2375Q78.26875 29.690624 78.26875 30.8625L78.26875 33.20625Q78.26875 35.659374 78.37813 36.315624Q78.4875 36.95625 78.83125 37.55L76.9875 37.55Q76.72188 37.003124 76.64375 36.26875ZM76.4875 32.346874Q75.53438 32.7375 73.6125 33.003124Q72.53438 33.159374 72.08125 33.3625Q71.64375 33.55 71.39375 33.925Q71.14375 34.3 71.14375 34.76875Q71.14375 35.471874 71.675 35.940624Q72.20625 36.409374 73.2375 36.409374Q74.25313 36.409374 75.03438 35.971874Q75.83125 35.51875 76.20625 34.753124Q76.4875 34.14375 76.4875 32.9875L76.4875 32.346874ZM87.64375 33.753124L89.3625 33.971874Q89.08125 35.76875 87.90938 36.784374Q86.75313 37.784374 85.05 37.784374Q82.925 37.784374 81.62813 36.39375Q80.33125 35.003124 80.33125 32.409374Q80.33125 30.721874 80.87813 29.471874Q81.44063 28.20625 82.58125 27.58125Q83.72188 26.940624 85.06563 26.940624Q86.75313 26.940624 87.81563 27.8Q88.89375 28.659374 89.20625 30.221874L87.4875 30.4875Q87.25313 29.440624 86.62813 28.925Q86.00313 28.39375 85.12813 28.39375Q83.8 28.39375 82.97188 29.346874Q82.14375 30.3 82.14375 32.346874Q82.14375 34.440624 82.94063 35.39375Q83.7375 36.33125 85.03438 36.33125Q86.06563 36.33125 86.75313 35.70625Q87.45625 35.065624 87.64375 33.753124ZM90.78438 41.55L90.59688 39.89375Q91.175 40.05 91.59688 40.05Q92.19063 40.05 92.53438 39.846874Q92.89375 39.659374 93.1125 39.315624Q93.28438 39.05 93.65938 38.003124Q93.70625 37.846874 93.81563 37.565624L89.87813 27.175L91.76875 27.175L93.925 33.190624Q94.34688 34.33125 94.675 35.58125Q94.9875 34.378124 95.39375 33.221874L97.6125 27.175L99.37813 27.175L95.425 37.721874Q94.8 39.440624 94.44063 40.08125Q93.97188 40.95625 93.3625 41.346874Q92.76875 41.753124 91.925 41.753124Q91.40938 41.753124 90.78438 41.55ZM117.31563 32.534374L119.20625 33.003124Q118.6125 35.346874 117.06563 36.58125Q115.51875 37.8 113.26875 37.8Q110.95625 37.8 109.50313 36.8625Q108.06563 35.909374 107.3 34.128124Q106.55 32.33125 106.55 30.284374Q106.55 28.05 107.39375 26.39375Q108.25313 24.721874 109.83125 23.8625Q111.40938 22.9875 113.3 22.9875Q115.45625 22.9875 116.90938 24.08125Q118.37813 25.175 118.95625 27.159374L117.09688 27.596874Q116.59688 26.034374 115.64375 25.33125Q114.70625 24.6125 113.26875 24.6125Q111.6125 24.6125 110.50313 25.409374Q109.39375 26.190624 108.94063 27.534374Q108.50313 28.8625 108.50313 30.26875Q108.50313 32.096874 109.03438 33.471874Q109.56563 34.83125 110.69063 35.503124Q111.81563 36.175 113.1125 36.175Q114.70625 36.175 115.81563 35.253124Q116.925 34.33125 117.31563 32.534374ZM120.22188 32.3625Q120.22188 29.4875 121.81563 28.096874Q123.15938 26.940624 125.08125 26.940624Q127.22188 26.940624 128.56563 28.346874Q129.925 29.753124 129.925 32.221874Q129.925 34.221874 129.33125 35.378124Q128.7375 36.51875 127.58125 37.159374Q126.44063 37.784374 125.08125 37.784374Q122.89375 37.784374 121.55 36.39375Q120.22188 34.9875 120.22188 32.3625ZM122.01875 32.3625Q122.01875 34.3625 122.87813 35.346874Q123.75313 36.33125 125.08125 36.33125Q126.39375 36.33125 127.25313 35.346874Q128.12813 34.346874 128.12813 32.3Q128.12813 30.378124 127.25313 29.39375Q126.37813 28.39375 125.08125 28.39375Q123.75313 28.39375 122.87813 29.39375Q122.01875 30.378124 122.01875 32.3625ZM131.8625 37.55L131.8625 27.175L133.44063 27.175L133.44063 28.628124Q133.925 27.878124 134.7375 27.409374Q135.55 26.940624 136.58125 26.940624Q137.7375 26.940624 138.47188 27.425Q139.20625 27.89375 139.51875 28.753124Q140.75313 26.940624 142.72188 26.940624Q144.26875 26.940624 145.09688 27.8Q145.925 28.659374 145.925 30.425L145.925 37.55L144.175 37.55L144.175 31.01875Q144.175 29.95625 144.00313 29.503124Q143.83125 29.034374 143.37813 28.753124Q142.94063 28.471874 142.33125 28.471874Q141.2375 28.471874 140.50313 29.20625Q139.78438 29.925 139.78438 31.51875L139.78438 37.55L138.03438 37.55L138.03438 30.815624Q138.03438 29.64375 137.59688 29.065624Q137.175 28.471874 136.19063 28.471874Q135.45625 28.471874 134.81563 28.8625Q134.19063 29.253124 133.90938 30.003124Q133.62813 30.753124 133.62813 32.175L133.62813 37.55L131.8625 37.55ZM147.8625 41.51875L147.8625 27.175L149.47188 27.175L149.47188 28.51875Q150.03438 27.7375 150.7375 27.346874Q151.45625 26.940624 152.47188 26.940624Q153.8 26.940624 154.81563 27.628124Q155.83125 28.315624 156.34688 29.565624Q156.87813 30.8 156.87813 32.284374Q156.87813 33.878124 156.3 35.159374Q155.7375 36.425 154.64375 37.1125Q153.55 37.784374 152.34688 37.784374Q151.47188 37.784374 150.76875 37.409374Q150.08125 37.034374 149.62813 36.471874L149.62813 41.51875L147.8625 41.51875ZM149.45625 32.425Q149.45625 34.425 150.26875 35.378124Q151.08125 36.33125 152.2375 36.33125Q153.40938 36.33125 154.2375 35.346874Q155.08125 34.3625 155.08125 32.26875Q155.08125 30.3 154.25313 29.315624Q153.44063 28.315624 152.31563 28.315624Q151.19063 28.315624 150.31563 29.378124Q149.45625 30.425 149.45625 32.425ZM165.64375 36.26875Q164.65938 37.096874 163.75313 37.440624Q162.84688 37.784374 161.81563 37.784374Q160.1125 37.784374 159.19063 36.95625Q158.26875 36.1125 158.26875 34.815624Q158.26875 34.05 158.6125 33.425Q158.97188 32.8 159.53438 32.425Q160.09688 32.034374 160.8 31.83125Q161.31563 31.70625 162.3625 31.565624Q164.4875 31.315624 165.4875 30.971874Q165.50313 30.6125 165.50313 30.503124Q165.50313 29.440624 165.00313 28.9875Q164.33125 28.39375 163.00313 28.39375Q161.75313 28.39375 161.15938 28.83125Q160.58125 29.26875 160.3 30.378124L158.58125 30.14375Q158.81563 29.034374 159.34688 28.3625Q159.87813 27.675 160.89375 27.315624Q161.90938 26.940624 163.25313 26.940624Q164.58125 26.940624 165.40938 27.253124Q166.2375 27.565624 166.62813 28.05Q167.01875 28.51875 167.175 29.2375Q167.26875 29.690624 167.26875 30.8625L167.26875 33.20625Q167.26875 35.659374 167.37813 36.315624Q167.4875 36.95625 167.83125 37.55L165.9875 37.55Q165.72188 37.003124 165.64375 36.26875ZM165.4875 32.346874Q164.53438 32.7375 162.6125 33.003124Q161.53438 33.159374 161.08125 33.3625Q160.64375 33.55 160.39375 33.925Q160.14375 34.3 160.14375 34.76875Q160.14375 35.471874 160.675 35.940624Q161.20625 36.409374 162.2375 36.409374Q163.25313 36.409374 164.03438 35.971874Q164.83125 35.51875 165.20625 34.753124Q165.4875 34.14375 165.4875 32.9875L165.4875 32.346874ZM169.84688 37.55L169.84688 27.175L171.425 27.175L171.425 28.753124Q172.03438 27.64375 172.55 27.3Q173.06563 26.940624 173.675 26.940624Q174.56563 26.940624 175.4875 27.503124L174.87813 29.14375Q174.2375 28.753124 173.59688 28.753124Q173.01875 28.753124 172.55 29.1125Q172.09688 29.45625 171.89375 30.065624Q171.6125 31.003124 171.6125 32.1125L171.6125 37.55L169.84688 37.55ZM176.87813 25.253124L176.87813 23.2375L178.64375 23.2375L178.64375 25.253124L176.87813 25.253124ZM176.87813 37.55L176.87813 27.175L178.64375 27.175L178.64375 37.55L176.87813 37.55ZM180.15938 34.45625L181.90938 34.175Q182.05 35.221874 182.72188 35.784374Q183.39375 36.33125 184.59688 36.33125Q185.8 36.33125 186.37813 35.846874Q186.97188 35.346874 186.97188 34.690624Q186.97188 34.096874 186.45625 33.753124Q186.09688 33.51875 184.65938 33.159374Q182.72188 32.659374 181.97188 32.315624Q181.2375 31.95625 180.84688 31.33125Q180.45625 30.690624 180.45625 29.925Q180.45625 29.2375 180.76875 28.64375Q181.09688 28.05 181.64375 27.659374Q182.05 27.3625 182.75313 27.159374Q183.47188 26.940624 184.28438 26.940624Q185.50313 26.940624 186.425 27.3Q187.34688 27.64375 187.78438 28.253124Q188.22188 28.846874 188.39375 29.846874L186.675 30.08125Q186.55 29.284374 185.9875 28.846874Q185.425 28.39375 184.40938 28.39375Q183.19063 28.39375 182.675 28.8Q182.15938 29.190624 182.15938 29.721874Q182.15938 30.065624 182.37813 30.346874Q182.58125 30.628124 183.05 30.815624Q183.31563 30.909374 184.59688 31.253124Q186.47188 31.753124 187.20625 32.08125Q187.94063 32.39375 188.3625 33.003124Q188.78438 33.596874 188.78438 34.503124Q188.78438 35.378124 188.26875 36.159374Q187.75313 36.940624 186.78438 37.3625Q185.81563 37.784374 184.59688 37.784374Q182.58125 37.784374 181.51875 36.940624Q180.45625 36.096874 180.15938 34.45625ZM190.22188 32.3625Q190.22188 29.4875 191.81563 28.096874Q193.15938 26.940624 195.08125 26.940624Q197.22188 26.940624 198.56563 28.346874Q199.925 29.753124 199.925 32.221874Q199.925 34.221874 199.33125 35.378124Q198.7375 36.51875 197.58125 37.159374Q196.44063 37.784374 195.08125 37.784374Q192.89375 37.784374 191.55 36.39375Q190.22188 34.9875 190.22188 32.3625ZM192.01875 32.3625Q192.01875 34.3625 192.87813 35.346874Q193.75313 36.33125 195.08125 36.33125Q196.39375 36.33125 197.25313 35.346874Q198.12813 34.346874 198.12813 32.3Q198.12813 30.378124 197.25313 29.39375Q196.37813 28.39375 195.08125 28.39375Q193.75313 28.39375 192.87813 29.39375Q192.01875 30.378124 192.01875 32.3625ZM201.8625 37.55L201.8625 27.175L203.45625 27.175L203.45625 28.659374Q204.59688 26.940624 206.75313 26.940624Q207.69063 26.940624 208.47188 27.284374Q209.26875 27.6125 209.65938 28.159374Q210.05 28.70625 210.20625 29.45625Q210.3 29.95625 210.3 31.175L210.3 37.55L208.53438 37.55L208.53438 31.2375Q208.53438 30.159374 208.33125 29.628124Q208.12813 29.096874 207.59688 28.784374Q207.08125 28.471874 206.37813 28.471874Q205.25313 28.471874 204.44063 29.190624Q203.62813 29.89375 203.62813 31.878124L203.62813 37.55L201.8625 37.55ZM217.51875 30.58125Q217.51875 27.01875 219.425 25.003124Q221.34688 22.971874 224.37813 22.971874Q226.3625 22.971874 227.94063 23.925Q229.53438 24.878124 230.3625 26.58125Q231.20625 28.26875 231.20625 30.409374Q231.20625 32.58125 230.33125 34.3Q229.45625 36.01875 227.83125 36.909374Q226.22188 37.8 224.3625 37.8Q222.34688 37.8 220.75313 36.83125Q219.15938 35.846874 218.33125 34.159374Q217.51875 32.45625 217.51875 30.58125ZM219.47188 30.6125Q219.47188 33.190624 220.8625 34.690624Q222.25313 36.175 224.34688 36.175Q226.4875 36.175 227.8625 34.675Q229.25313 33.159374 229.25313 30.39375Q229.25313 28.659374 228.65938 27.3625Q228.08125 26.05 226.94063 25.33125Q225.8 24.6125 224.37813 24.6125Q222.37813 24.6125 220.925 26.003124Q219.47188 27.378124 219.47188 30.6125ZM233.84688 37.55L233.84688 27.175L235.425 27.175L235.425 28.753124Q236.03438 27.64375 236.55 27.3Q237.06563 26.940624 237.675 26.940624Q238.56563 26.940624 239.4875 27.503124L238.87813 29.14375Q238.2375 28.753124 237.59688 28.753124Q237.01875 28.753124 236.55 29.1125Q236.09688 29.45625 235.89375 30.065624Q235.6125 31.003124 235.6125 32.1125L235.6125 37.55L233.84688 37.55ZM240.87813 25.253124L240.87813 23.2375L242.64375 23.2375L242.64375 25.253124L240.87813 25.253124ZM240.87813 37.55L240.87813 27.175L242.64375 27.175L242.64375 37.55L240.87813 37.55ZM244.55 38.409374L246.25313 38.659374Q246.3625 39.45625 246.84688 39.815624Q247.50313 40.3 248.64375 40.3Q249.8625 40.3 250.51875 39.815624Q251.19063 39.33125 251.425 38.45625Q251.56563 37.909374 251.55 36.190624Q250.39375 37.55 248.675 37.55Q246.53438 37.55 245.3625 36.003124Q244.19063 34.45625 244.19063 32.3Q244.19063 30.815624 244.72188 29.565624Q245.26875 28.315624 246.28438 27.628124Q247.31563 26.940624 248.69063 26.940624Q250.51875 26.940624 251.72188 28.425L251.72188 27.175L253.33125 27.175L253.33125 36.14375Q253.33125 38.565624 252.83125 39.565624Q252.34688 40.58125 251.26875 41.159374Q250.20625 41.753124 248.64375 41.753124Q246.8 41.753124 245.64375 40.925Q244.50313 40.096874 244.55 38.409374ZM246.00313 32.175Q246.00313 34.221874 246.81563 35.159374Q247.62813 36.096874 248.84688 36.096874Q250.05 36.096874 250.8625 35.159374Q251.69063 34.221874 251.69063 32.2375Q251.69063 30.33125 250.84688 29.3625Q250.00313 28.39375 248.81563 28.39375Q247.64375 28.39375 246.81563 29.346874Q246.00313 30.3 246.00313 32.175ZM255.87813 25.253124L255.87813 23.2375L257.64374 23.2375L257.64374 25.253124L255.87813 25.253124ZM255.87813 37.55L255.87813 27.175L257.64374 27.175L257.64374 37.55L255.87813 37.55ZM259.8625 37.55L259.8625 27.175L261.45624 27.175L261.45624 28.659374Q262.59686 26.940624 264.7531 26.940624Q265.6906 26.940624 266.47186 27.284374Q267.26874 27.6125 267.65936 28.159374Q268.05 28.70625 268.20624 29.45625Q268.3 29.95625 268.3 31.175L268.3 37.55L266.53436 37.55L266.53436 31.2375Q266.53436 30.159374 266.33124 29.628124Q266.1281 29.096874 265.59686 28.784374Q265.08124 28.471874 264.3781 28.471874Q263.2531 28.471874 262.4406 29.190624Q261.6281 29.89375 261.6281 31.878124L261.6281 37.55L259.8625 37.55ZM276.64374 36.26875Q275.65936 37.096874 274.7531 37.440624Q273.84686 37.784374 272.8156 37.784374Q271.1125 37.784374 270.1906 36.95625Q269.26874 36.1125 269.26874 34.815624Q269.26874 34.05 269.6125 33.425Q269.97186 32.8 270.53436 32.425Q271.09686 32.034374 271.8 31.83125Q272.3156 31.70625 273.3625 31.565624Q275.4875 31.315624 276.4875 30.971874Q276.5031 30.6125 276.5031 30.503124Q276.5031 29.440624 276.0031 28.9875Q275.33124 28.39375 274.0031 28.39375Q272.7531 28.39375 272.15936 28.83125Q271.58124 29.26875 271.3 30.378124L269.58124 30.14375Q269.8156 29.034374 270.34686 28.3625Q270.8781 27.675 271.89374 27.315624Q272.90936 26.940624 274.2531 26.940624Q275.58124 26.940624 276.40936 27.253124Q277.2375 27.565624 277.6281 28.05Q278.01874 28.51875 278.175 29.2375Q278.26874 29.690624 278.26874 30.8625L278.26874 33.20625Q278.26874 35.659374 278.3781 36.315624Q278.4875 36.95625 278.83124 37.55L276.9875 37.55Q276.72186 37.003124 276.64374 36.26875ZM276.4875 32.346874Q275.53436 32.7375 273.6125 33.003124Q272.53436 33.159374 272.08124 33.3625Q271.64374 33.55 271.39374 33.925Q271.14374 34.3 271.14374 34.76875Q271.14374 35.471874 271.675 35.940624Q272.20624 36.409374 273.2375 36.409374Q274.2531 36.409374 275.03436 35.971874Q275.83124 35.51875 276.20624 34.753124Q276.4875 34.14375 276.4875 32.9875L276.4875 32.346874ZM280.83124 37.55L280.83124 23.2375L282.58124 23.2375L282.58124 37.55L280.83124 37.55ZM295.1906 37.55L289.64374 23.2375L291.6906 23.2375L295.40936 33.628124Q295.8625 34.878124 296.15936 35.971874Q296.4875 34.8 296.9406 33.628124L300.8 23.2375L302.7375 23.2375L297.1281 37.55L295.1906 37.55ZM303.45624 32.95625L305.2375 32.8Q305.3625 33.8625 305.8156 34.55Q306.28436 35.2375 307.2531 35.675Q308.2375 36.096874 309.47186 36.096874Q310.55 36.096874 311.3781 35.784374Q312.20624 35.45625 312.6125 34.89375Q313.01874 34.33125 313.01874 33.659374Q313.01874 32.9875 312.6281 32.4875Q312.2375 31.9875 311.34686 31.64375Q310.76874 31.409374 308.78436 30.940624Q306.8156 30.471874 306.03436 30.05Q305.0031 29.51875 304.5031 28.721874Q304.0031 27.925 304.0031 26.940624Q304.0031 25.846874 304.6125 24.909374Q305.22186 23.971874 306.40936 23.4875Q307.59686 22.9875 309.03436 22.9875Q310.6281 22.9875 311.84686 23.503124Q313.0656 24.01875 313.70624 25.01875Q314.3625 26.003124 314.40936 27.26875L312.59686 27.409374Q312.45624 26.05 311.6125 25.3625Q310.76874 24.659374 309.1125 24.659374Q307.39374 24.659374 306.59686 25.3Q305.8156 25.925 305.8156 26.8Q305.8156 27.58125 306.3781 28.08125Q306.925 28.58125 309.2375 29.096874Q311.55 29.6125 312.40936 30.003124Q313.65936 30.58125 314.2531 31.471874Q314.84686 32.346874 314.84686 33.503124Q314.84686 34.64375 314.1906 35.659374Q313.53436 36.675 312.3 37.2375Q311.08124 37.8 309.55 37.8Q307.6125 37.8 306.3 37.2375Q304.9875 36.659374 304.2375 35.51875Q303.4875 34.378124 303.45624 32.95625ZM322.45624 32.95625L324.2375 32.8Q324.3625 33.8625 324.8156 34.55Q325.28436 35.2375 326.2531 35.675Q327.2375 36.096874 328.47186 36.096874Q329.55 36.096874 330.3781 35.784374Q331.20624 35.45625 331.6125 34.89375Q332.01874 34.33125 332.01874 33.659374Q332.01874 32.9875 331.6281 32.4875Q331.2375 31.9875 330.34686 31.64375Q329.76874 31.409374 327.78436 30.940624Q325.8156 30.471874 325.03436 30.05Q324.0031 29.51875 323.5031 28.721874Q323.0031 27.925 323.0031 26.940624Q323.0031 25.846874 323.6125 24.909374Q324.22186 23.971874 325.40936 23.4875Q326.59686 22.9875 328.03436 22.9875Q329.6281 22.9875 330.84686 23.503124Q332.0656 24.01875 332.70624 25.01875Q333.3625 26.003124 333.40936 27.26875L331.59686 27.409374Q331.45624 26.05 330.6125 25.3625Q329.76874 24.659374 328.1125 24.659374Q326.39374 24.659374 325.59686 25.3Q324.8156 25.925 324.8156 26.8Q324.8156 27.58125 325.3781 28.08125Q325.925 28.58125 328.2375 29.096874Q330.55 29.6125 331.40936 30.003124Q332.65936 30.58125 333.2531 31.471874Q333.84686 32.346874 333.84686 33.503124Q333.84686 34.64375 333.1906 35.659374Q332.53436 36.675 331.3 37.2375Q330.08124 37.8 328.55 37.8Q326.6125 37.8 325.3 37.2375Q323.9875 36.659374 323.2375 35.51875Q322.4875 34.378124 322.45624 32.95625ZM342.97186 34.20625L344.78436 34.440624Q344.3625 36.01875 343.1906 36.909374Q342.03436 37.784374 340.22186 37.784374Q337.95624 37.784374 336.6125 36.39375Q335.28436 34.9875 335.28436 32.45625Q335.28436 29.83125 336.6281 28.39375Q337.97186 26.940624 340.1281 26.940624Q342.20624 26.940624 343.51874 28.3625Q344.84686 29.76875 344.84686 32.346874Q344.84686 32.503124 344.83124 32.815624L337.09686 32.815624Q337.1906 34.51875 338.0656 35.425Q338.9406 36.33125 340.2375 36.33125Q341.20624 36.33125 341.8781 35.83125Q342.5656 35.315624 342.97186 34.20625ZM337.1906 31.3625L342.9875 31.3625Q342.8781 30.065624 342.33124 29.409374Q341.4875 28.39375 340.14374 28.39375Q338.9406 28.39375 338.1125 29.20625Q337.28436 30.003124 337.1906 31.3625ZM346.55 38.409374L348.2531 38.659374Q348.3625 39.45625 348.84686 39.815624Q349.5031 40.3 350.64374 40.3Q351.8625 40.3 352.51874 39.815624Q353.1906 39.33125 353.425 38.45625Q353.5656 37.909374 353.55 36.190624Q352.39374 37.55 350.675 37.55Q348.53436 37.55 347.3625 36.003124Q346.1906 34.45625 346.1906 32.3Q346.1906 30.815624 346.72186 29.565624Q347.26874 28.315624 348.28436 27.628124Q349.3156 26.940624 350.6906 26.940624Q352.51874 26.940624 353.72186 28.425L353.72186 27.175L355.33124 27.175L355.33124 36.14375Q355.33124 38.565624 354.83124 39.565624Q354.34686 40.58125 353.26874 41.159374Q352.20624 41.753124 350.64374 41.753124Q348.8 41.753124 347.64374 40.925Q346.5031 40.096874 346.55 38.409374ZM348.0031 32.175Q348.0031 34.221874 348.8156 35.159374Q349.6281 36.096874 350.84686 36.096874Q352.05 36.096874 352.8625 35.159374Q353.6906 34.221874 353.6906 32.2375Q353.6906 30.33125 352.84686 29.3625Q352.0031 28.39375 350.8156 28.39375Q349.64374 28.39375 348.8156 29.346874Q348.0031 30.3 348.0031 32.175ZM357.8625 37.55L357.8625 27.175L359.4406 27.175L359.4406 28.628124Q359.925 27.878124 360.7375 27.409374Q361.55 26.940624 362.58124 26.940624Q363.7375 26.940624 364.47186 27.425Q365.20624 27.89375 365.51874 28.753124Q366.7531 26.940624 368.72186 26.940624Q370.26874 26.940624 371.09686 27.8Q371.925 28.659374 371.925 30.425L371.925 37.55L370.175 37.55L370.175 31.01875Q370.175 29.95625 370.0031 29.503124Q369.83124 29.034374 369.3781 28.753124Q368.9406 28.471874 368.33124 28.471874Q367.2375 28.471874 366.5031 29.20625Q365.78436 29.925 365.78436 31.51875L365.78436 37.55L364.03436 37.55L364.03436 30.815624Q364.03436 29.64375 363.59686 29.065624Q363.175 28.471874 362.1906 28.471874Q361.45624 28.471874 360.8156 28.8625Q360.1906 29.253124 359.90936 30.003124Q359.6281 30.753124 359.6281 32.175L359.6281 37.55L357.8625 37.55ZM380.97186 34.20625L382.78436 34.440624Q382.3625 36.01875 381.1906 36.909374Q380.03436 37.784374 378.22186 37.784374Q375.95624 37.784374 374.6125 36.39375Q373.28436 34.9875 373.28436 32.45625Q373.28436 29.83125 374.6281 28.39375Q375.97186 26.940624 378.1281 26.940624Q380.20624 26.940624 381.51874 28.3625Q382.84686 29.76875 382.84686 32.346874Q382.84686 32.503124 382.83124 32.815624L375.09686 32.815624Q375.1906 34.51875 376.0656 35.425Q376.9406 36.33125 378.2375 36.33125Q379.20624 36.33125 379.8781 35.83125Q380.5656 35.315624 380.97186 34.20625ZM375.1906 31.3625L380.9875 31.3625Q380.8781 30.065624 380.33124 29.409374Q379.4875 28.39375 378.14374 28.39375Q376.9406 28.39375 376.1125 29.20625Q375.28436 30.003124 375.1906 31.3625ZM384.8625 37.55L384.8625 27.175L386.45624 27.175L386.45624 28.659374Q387.59686 26.940624 389.7531 26.940624Q390.6906 26.940624 391.47186 27.284374Q392.26874 27.6125 392.65936 28.159374Q393.05 28.70625 393.20624 29.45625Q393.3 29.95625 393.3 31.175L393.3 37.55L391.53436 37.55L391.53436 31.2375Q391.53436 30.159374 391.33124 29.628124Q391.1281 29.096874 390.59686 28.784374Q390.08124 28.471874 389.3781 28.471874Q388.2531 28.471874 387.4406 29.190624Q386.6281 29.89375 386.6281 31.878124L386.6281 37.55L384.8625 37.55ZM398.70624 35.971874L398.95624 37.534374Q398.22186 37.690624 397.6281 37.690624Q396.675 37.690624 396.14374 37.39375Q395.6281 37.08125 395.40936 36.596874Q395.1906 36.096874 395.1906 34.51875L395.1906 28.55L393.90936 28.55L393.90936 27.175L395.1906 27.175L395.1906 24.6125L396.9406 23.55L396.9406 27.175L398.70624 27.175L398.70624 28.55L396.9406 28.55L396.9406 34.6125Q396.9406 35.3625 397.03436 35.58125Q397.1281 35.784374 397.33124 35.925Q397.55 36.05 397.9406 36.05Q398.22186 36.05 398.70624 35.971874ZM407.97186 34.20625L409.78436 34.440624Q409.3625 36.01875 408.1906 36.909374Q407.03436 37.784374 405.22186 37.784374Q402.95624 37.784374 401.6125 36.39375Q400.28436 34.9875 400.28436 32.45625Q400.28436 29.83125 401.6281 28.39375Q402.97186 26.940624 405.1281 26.940624Q407.20624 26.940624 408.51874 28.3625Q409.84686 29.76875 409.84686 32.346874Q409.84686 32.503124 409.83124 32.815624L402.09686 32.815624Q402.1906 34.51875 403.0656 35.425Q403.9406 36.33125 405.2375 36.33125Q406.20624 36.33125 406.8781 35.83125Q407.5656 35.315624 407.97186 34.20625ZM402.1906 31.3625L407.9875 31.3625Q407.8781 30.065624 407.33124 29.409374Q406.4875 28.39375 405.14374 28.39375Q403.9406 28.39375 403.1125 29.20625Q402.28436 30.003124 402.1906 31.3625ZM418.59686 37.55L418.59686 36.2375Q417.6125 37.784374 415.6906 37.784374Q414.45624 37.784374 413.40936 37.096874Q412.3781 36.409374 411.8 35.190624Q411.2375 33.971874 411.2375 32.378124Q411.2375 30.815624 411.7531 29.55Q412.26874 28.284374 413.3 27.6125Q414.34686 26.940624 415.6125 26.940624Q416.55 26.940624 417.28436 27.346874Q418.01874 27.7375 418.4875 28.3625L418.4875 23.2375L420.22186 23.2375L420.22186 37.55L418.59686 37.55ZM413.03436 32.378124Q413.03436 34.3625 413.8781 35.346874Q414.72186 36.33125 415.8625 36.33125Q417.01874 36.33125 417.8156 35.39375Q418.6281 34.45625 418.6281 32.51875Q418.6281 30.39375 417.8 29.39375Q416.9875 28.39375 415.78436 28.39375Q414.6125 28.39375 413.8156 29.3625Q413.03436 30.315624 413.03436 32.378124Z" fill-rule="nonzero"/></svg>